<svg width="59" height="60" viewBox="0 0 59 60" fill="none" xmlns="http://www.w3.org/2000/svg">
<path d="M11.8669 3.43607C11.9363 3.41871 12.0058 3.38399 12.0752 3.36663C12.3182 3.2972 12.3008 3.27985 11.9884 3.33192C11.6933 2.62025 11.3982 1.89123 11.1032 1.17956C10.3915 2.63761 9.08967 3.67907 8.03085 4.87676C6.86789 6.19594 6 7.70606 5.8785 9.49391C5.77435 11.0214 7.18032 12.2538 8.67309 11.7678C9.71455 11.438 10.5651 10.5874 11.3462 9.84106C12.1273 9.07732 12.8563 8.27887 13.62 7.48041C13.863 7.22005 14.1061 6.97704 14.3664 6.75139C14.5921 6.56045 13.9151 7.08118 14.1755 6.90761C14.2449 6.85553 14.3143 6.80346 14.3838 6.75139C14.6268 6.57781 14.8698 6.42159 15.1302 6.24801C15.6509 5.8835 16.189 5.55371 16.7618 5.27598C17.2131 5.05033 16.4146 5.39749 16.8659 5.24127C16.9874 5.18919 17.1089 5.17184 17.2478 5.13712C16.7618 5.24127 17.3519 5.20655 16.8139 5.11976C16.2931 5.03297 15.998 4.44281 15.9633 3.97415C15.9807 3.88737 15.9807 3.78322 15.998 3.69643C15.946 3.87001 15.9633 3.83529 16.0501 3.57493C15.998 3.67907 15.9286 3.78322 15.8418 3.88737C16.1022 3.52285 15.8071 3.90472 15.755 3.9568C15.6509 4.0783 15.5294 4.18245 15.4252 4.28659C15.1822 4.51224 14.9392 4.72054 14.6789 4.92883C14.2623 5.25863 14.9566 4.72054 14.54 5.03297C14.3838 5.15448 14.2276 5.25863 14.0713 5.38013C10.4089 7.94907 7.3539 11.5942 5.04533 15.274C3.91707 17.0792 2.75411 18.8844 1.78208 20.7764C0.740613 22.8073 -0.109915 25.0638 0.0115893 27.3897C0.0983778 28.9172 1.31342 29.6636 2.73675 29.4726C4.43781 29.247 5.63549 27.5806 6.5728 26.2962C6.76374 26.0358 6.95467 25.7581 7.12825 25.4977C7.2324 25.3589 7.33654 25.2026 7.44069 25.0638C7.04146 25.6192 7.57955 24.8902 7.63162 24.8381C8.30858 23.9876 8.98553 23.1371 9.66248 22.2865C11.5892 19.9085 13.6548 17.6694 15.9286 15.6038C16.8139 14.8054 17.7165 14.0243 18.6364 13.2779C18.7232 13.2085 18.8274 13.139 18.9141 13.0522C19.3828 12.6704 18.5149 13.3647 19.0009 12.9828C19.2787 12.7572 19.5737 12.5489 19.8688 12.3406C20.4416 11.9066 21.0318 11.5074 21.6219 11.1255C22.1427 10.7957 22.6808 10.4833 23.2362 10.2056C23.4792 10.0841 23.7222 9.97992 23.9652 9.85842C23.323 10.1361 24.2256 9.77163 24.3992 9.71956C24.6248 9.65013 24.8505 9.59805 25.0761 9.54598C25.2323 9.51126 25.7357 9.44183 24.9893 9.54598C25.1108 9.52862 25.2497 9.52862 25.3712 9.51126C25.4927 9.51126 25.6142 9.51126 25.7357 9.51126C26.2044 9.52862 25.1456 9.40712 25.5969 9.49391C25.7184 9.51126 25.8225 9.54598 25.944 9.5807C26.378 9.7022 25.4233 9.32033 25.8225 9.52862C25.5448 8.4698 25.2671 7.42834 24.9893 6.36952C24.9199 6.49102 24.8331 6.61253 24.7637 6.71667C24.9025 6.5431 24.8852 6.5431 24.6943 6.76875C24.4339 7.06383 24.1388 7.32419 23.8437 7.58456C23.2536 8.10529 22.6287 8.57395 22.0212 9.07732C20.7193 10.1709 19.4522 11.3165 18.2372 12.4968C15.6682 14.9442 13.2902 17.5652 11.19 20.4466C9.17646 23.2239 7.33654 26.14 5.73963 29.1776C4.45516 31.6423 2.30281 34.9924 3.48313 37.8564C4.05594 39.2277 5.14947 39.974 6.65959 39.6616C8.7078 39.2277 10.0964 37.4225 11.242 35.8082C11.4677 35.4958 11.676 35.1833 11.8843 34.8709C11.9711 34.732 12.0752 34.5932 12.162 34.4717C11.7454 35.0618 12.2835 34.3328 12.3356 34.2634C13.1687 33.2393 14.0019 32.2152 14.783 31.1737C15.1128 30.7397 15.4252 30.3232 15.755 29.8892C15.9113 29.6809 16.0848 29.4553 16.2411 29.247C15.9113 29.6809 16.4493 28.9866 16.4667 28.9693C17.1784 28.0493 17.9074 27.1641 18.6538 26.2788C20.0771 24.5951 21.6046 23.0156 23.2536 21.5402C24.0173 20.8632 24.7984 20.1863 25.5969 19.544C25.8051 19.3878 25.9961 19.2142 26.2044 19.058C25.7531 19.4225 26.43 18.8844 26.4647 18.8671C26.9508 18.5026 27.4368 18.1554 27.9228 17.8083C29.6759 16.5759 31.5158 15.4476 33.4252 14.4756C34.2931 14.0243 35.1783 13.6424 36.0636 13.2432C36.4107 13.087 36.7579 12.9307 37.105 12.7919C36.4107 13.087 37.0877 12.8092 37.2092 12.7572C37.4695 12.653 37.7473 12.5489 38.0076 12.4447C38.8408 12.1323 39.674 11.8719 40.5418 11.6636C40.7501 11.6115 40.9584 11.5768 41.1667 11.5421C41.8784 11.4033 40.5418 11.5942 41.2362 11.5248C41.4271 11.5074 41.6354 11.49 41.8263 11.49C42.0173 11.49 42.8851 11.5768 42.0173 11.4553C42.1388 11.4727 42.2429 11.49 42.3644 11.5248C41.809 10.1535 41.2535 8.78224 40.6981 7.41098C40.5939 7.58456 40.5071 7.74078 40.3856 7.897C40.8022 7.28948 40.4203 7.81021 40.3162 7.93171C40.1773 8.08793 40.0211 8.20944 39.8649 8.3483C39.7781 8.43509 39.2227 8.86903 39.7781 8.43509C39.0317 8.99053 38.2333 9.47655 37.4695 9.99728C35.6643 11.2123 33.9806 12.6877 32.3837 14.1458C28.999 17.2181 25.9961 20.6896 23.2188 24.3C23.2015 24.3347 22.6634 25.0117 23.0106 24.5604C22.8543 24.7687 22.6808 24.977 22.5245 25.1853C22.108 25.7234 21.6914 26.2615 21.2921 26.7995C20.5978 27.7195 19.9382 28.6395 19.2787 29.5768C18.0115 31.382 16.8486 33.2566 15.755 35.166C14.6962 37.0059 13.7589 38.9152 12.8737 40.8419C11.919 42.9596 11.0858 44.9557 10.8602 47.2816C10.8254 47.6462 10.8254 47.9933 10.8602 48.3578C10.9296 49.2604 11.2941 50.0415 12.0926 50.5102C12.8042 50.9268 13.8978 51.0135 14.6094 50.5102C16.2931 49.2951 17.2999 47.6462 18.2893 45.8757C19.2613 44.1399 20.4069 42.4562 21.5352 40.8246C22.108 39.974 22.7155 39.1582 23.3404 38.3424C23.3751 38.3077 23.8784 37.6481 23.5313 38.0994C23.6875 37.8911 23.8437 37.7002 23.9999 37.5093C24.3645 37.0406 24.7463 36.5893 25.1282 36.138C26.4995 34.5237 27.9401 32.9789 29.4676 31.5208C30.1966 30.8265 30.943 30.1322 31.7068 29.4726C32.0886 29.1428 32.4705 28.813 32.8697 28.5006C33.0607 28.3444 33.269 28.1882 33.4599 28.0146C33.5988 27.9104 33.7203 27.8063 33.8591 27.7021C33.5988 27.8931 33.6161 27.8931 33.8765 27.6848C35.5602 26.4003 37.3307 25.22 39.1359 24.1438C40.9584 23.0503 42.8678 22.0782 44.7945 21.193C44.9333 21.1409 45.7318 20.8111 44.9507 21.1236C45.1069 21.0541 45.2631 21.0021 45.4194 20.9326C45.9401 20.707 46.4608 20.4987 46.9816 20.273C47.1204 20.221 47.7627 19.9432 47.0336 20.2557C47.2246 20.1689 47.4329 20.0995 47.6238 20.0127C48.0925 19.8217 48.5785 19.6482 49.0471 19.4746C49.7761 19.2142 50.5399 19.0059 51.3036 18.8671C50.4184 19.0233 51.4599 18.8671 51.6855 18.8671C51.8764 18.8671 52.05 18.8844 52.2236 18.9018C51.3383 18.815 51.9111 18.8671 52.1194 18.9191C51.5293 17.4785 50.9565 16.0378 50.3663 14.5971C50.8523 13.9201 50.5052 14.4061 50.3837 14.5624C50.2622 14.7012 50.1233 14.8401 49.9844 14.9616C49.8456 15.1004 49.6894 15.222 49.5331 15.3435C50.1233 14.8574 49.5679 15.3087 49.4464 15.3782C48.6826 15.9163 47.8842 16.3676 47.0683 16.8362C45.2284 17.8777 43.5794 19.1448 41.9305 20.4466C38.4416 23.1718 35.2304 26.2441 32.2622 29.5247C29.1552 32.9615 26.2912 36.6587 23.7049 40.5121C22.4551 42.3868 21.3269 44.3135 20.1812 46.2575C19.0356 48.1842 17.89 50.0242 17.0221 52.0897C16.7444 52.7493 16.5535 53.4263 16.432 54.1206C16.2237 55.405 16.5535 56.6548 17.7512 57.3665C18.8621 58.0087 20.3375 57.8351 21.2227 56.9152C22.6634 55.4398 23.7222 53.6519 24.7984 51.8988C25.8572 50.1804 27.0028 48.514 28.1832 46.8998C28.4956 46.4832 28.808 46.0666 29.1205 45.65C29.6412 44.9557 28.756 46.1187 29.294 45.4244C29.4503 45.2161 29.6238 45.0251 29.7801 44.8168C30.4397 44.001 31.1166 43.2199 31.8109 42.4388C33.269 40.8246 34.8485 39.3145 36.4975 37.8911C36.8967 37.544 37.296 37.2142 37.6952 36.8844C37.9035 36.7108 38.0944 36.5546 38.3027 36.3984C37.6257 36.9364 38.7019 36.0859 38.9276 35.9123C39.6219 35.3743 38.4242 36.2942 39.1185 35.7561C39.3268 35.5999 39.5351 35.4437 39.7434 35.2875C40.16 34.975 40.5939 34.6799 41.0279 34.3849C42.7289 33.2045 44.5168 32.1284 46.3567 31.1563C47.9362 30.3232 49.5679 29.5594 51.1995 28.8304C51.8938 28.518 50.5573 29.0908 51.2689 28.7957C51.4772 28.7089 51.6855 28.6395 51.8938 28.5527C52.3104 28.3965 52.727 28.2576 53.1435 28.1534C53.4039 28.084 54.7578 27.8584 53.7337 27.9799C53.9246 27.9625 54.1156 27.9452 54.3065 27.9452C54.428 27.9452 54.5495 27.9452 54.6884 27.9625C54.1503 27.8757 54.0635 27.8584 54.3933 27.9278C53.7684 26.383 53.1435 24.8555 52.5187 23.3106C53.0568 22.5643 52.3624 23.4321 52.1889 23.6057C52.0847 23.7099 51.9806 23.7967 51.8591 23.8834C52.5013 23.3454 51.9285 23.8314 51.7896 23.9182C51.1648 24.3521 50.5225 24.7513 49.8803 25.1506C48.266 26.1573 46.7733 27.355 45.3326 28.5874C42.5206 30.9654 40.0211 33.6732 37.6952 36.5199C35.2651 39.5227 32.9912 42.6124 30.9604 45.893C29.9884 47.4726 29.0684 49.0695 28.1137 50.6664C27.1243 52.298 26.1349 54.0859 25.8399 55.9952C25.6142 57.4185 25.9614 58.7898 27.2979 59.5709C28.5824 60.3346 30.0578 60.0222 31.134 59.0675C32.8003 57.6095 34.0674 55.7522 35.2651 53.9123C35.8205 53.0618 36.3586 52.1939 36.9141 51.3433C37.2092 50.892 37.5216 50.4407 37.834 50.0068C37.9729 49.8159 38.1118 49.6423 38.2333 49.4514C37.6778 50.1804 38.3201 49.3819 38.4242 49.2431C39.726 47.7156 41.1146 46.2575 42.6248 44.9557C42.7983 44.7995 42.9893 44.6606 43.1629 44.5044C43.4406 44.2788 43.4059 44.3135 43.0414 44.5912C43.1629 44.5044 43.2844 44.4003 43.4232 44.3135C43.8572 44.001 44.3085 43.7233 44.7771 43.4456C44.9681 43.3414 45.1764 43.2373 45.3846 43.1332C45.5235 43.0637 45.645 43.0116 45.7839 42.9422C45.3326 43.1331 45.2631 43.1505 45.6103 43.029C46.079 42.8381 46.5823 42.7166 47.0683 42.6124C45.6971 41.8313 44.3258 41.0502 42.9546 40.2865C43.1281 40.894 42.9199 39.245 42.9025 39.922C42.9025 40.2518 43.1281 38.8458 42.9199 39.6442C42.8331 39.9393 42.5033 40.6684 43.0066 39.5227C42.9025 39.7831 42.7636 40.0261 42.6248 40.2691C42.3644 40.7378 42.0693 41.1717 41.7742 41.6057C41.618 41.8487 41.4444 42.0743 41.2709 42.3C41.1147 42.5256 40.3336 43.5324 41.0452 42.5951C40.2988 43.5497 39.5351 44.487 38.7887 45.4417C38.077 46.3617 37.2612 47.299 36.7405 48.3578C36.0462 49.7464 36.133 51.3607 37.2786 52.5063C38.5457 53.7734 40.8716 53.8949 42.1214 52.5063C42.4165 52.1765 42.6768 51.8294 42.9546 51.4822C42.8678 51.5864 44.43 49.5729 43.4232 50.8747C43.6315 50.597 43.8398 50.3366 44.0481 50.0762C44.4473 49.5729 44.8813 49.0695 45.3152 48.6008C45.5062 48.3925 45.7144 48.2016 45.9054 47.9933C46.0269 47.8892 46.1484 47.785 46.2699 47.6809C46.7385 47.2816 45.5582 48.2016 46.0442 47.8545C46.2178 47.7329 46.4261 47.6288 46.617 47.5247C45.645 47.9933 45.9054 47.8024 46.2178 47.7329C45.3847 47.9239 45.7144 47.8718 44.8639 47.7329C43.5968 47.5247 42.9198 46.0666 42.8851 45.1119C42.9025 45.6674 43.0761 44.0878 42.9372 44.6606C42.9025 44.7995 42.8504 44.9384 42.8157 45.0772C42.781 45.1814 42.7463 45.2681 42.7116 45.3549C42.4859 45.9451 43.0761 44.5044 42.8157 45.0946C42.5901 45.6153 42.3644 46.136 42.1388 46.6568C41.861 47.3337 41.6701 48.0627 41.7048 48.7918C41.7742 50.7011 43.2844 52.4195 45.2805 52.3675C46.0616 52.3501 46.808 52.1592 47.5544 51.9856C47.8494 51.9162 48.457 51.8467 47.1551 52.0029C47.4849 51.9682 47.9883 52.0724 46.7038 51.8814C46.7385 51.8988 46.7733 51.8988 46.8253 51.9162C46.079 51.6905 45.5061 51.2566 45.1243 50.6143C44.6383 49.92 44.8639 49.8853 44.9507 50.3887C45.2979 52.3501 47.6585 53.4263 49.429 52.9403C51.4772 52.3675 52.3104 50.406 51.9806 48.462C51.8244 47.5594 51.3036 46.6741 50.6614 46.0319C49.7935 45.164 48.7347 44.9036 47.5544 44.7648C46.9295 44.6953 46.2525 44.8689 45.645 45.0425C45.4541 45.0946 45.2631 45.1466 45.0896 45.1987C45.0028 45.2161 44.916 45.2508 44.8292 45.2681C44.2564 45.407 45.8533 45.1814 45.2979 45.2161C46.4955 46.4138 47.6759 47.5941 48.8735 48.7918C48.8562 48.462 48.9777 48.1148 48.7694 49.3299C48.7868 49.2084 48.8215 49.0868 48.8735 48.948C48.9777 48.6182 49.1166 48.2884 49.2381 47.9586C49.5852 47.0733 49.8282 46.2749 49.8977 45.3202C50.1407 42.2305 46.8427 40.0435 44.0307 41.0849C42.2603 41.7445 40.9064 43.029 39.726 44.4697C39.1012 45.2334 38.511 46.0145 37.9208 46.7956C37.7125 47.0734 37.5042 47.3511 37.296 47.6288C38.077 46.5873 37.4869 47.3858 37.2786 47.6288C39.0664 49.0174 40.8716 50.3887 42.6595 51.7773C43.0761 50.9268 43.6836 50.163 44.239 49.3993C44.3085 49.3125 44.3779 49.2257 44.43 49.1389C44.8292 48.6182 43.9092 49.8159 44.3085 49.2951C44.5168 49.0174 44.7424 48.7397 44.9507 48.462C45.5235 47.7156 46.1137 46.9692 46.6691 46.2228C48.2487 44.1052 50.2275 41.2585 49.3943 38.4813C48.8388 36.6587 47.1031 35.7561 45.2805 36.1553C40.7328 37.1274 37.1397 40.7551 34.2063 44.1399C32.6788 45.9104 31.4117 47.8545 30.1793 49.8506C29.6065 50.7705 29.0337 51.6905 28.4088 52.5757C28.2873 52.7667 28.1484 52.9403 28.0096 53.1138C28.5477 52.4022 27.9228 53.2006 27.8186 53.3395C27.4541 53.7734 27.0375 54.19 26.621 54.5719C28.3914 55.596 30.1619 56.6375 31.9151 57.6616C31.9671 57.2623 32.0539 56.8805 32.1754 56.4812C32.2275 56.325 32.2796 56.1688 32.3316 56.0126C32.6094 55.2141 32.0539 56.6027 32.4011 55.839C32.7482 55.0579 33.1822 54.3289 33.6161 53.5998C34.5534 52.0029 35.4734 50.3887 36.4628 48.8091C37.4175 47.2816 38.4068 45.7889 39.4483 44.3482C39.7087 43.9837 39.969 43.6192 40.2468 43.272C40.3509 43.1332 40.4551 42.9769 40.5766 42.8381C41.1147 42.1264 40.1947 43.3241 40.7501 42.6124C41.3577 41.8487 41.9652 41.0849 42.5901 40.3386C44.8813 37.5787 47.3808 34.9924 50.1407 32.6838C50.4705 32.4061 50.8176 32.1284 51.1648 31.8506C51.4425 31.625 51.4425 31.6423 51.1474 31.8506C51.3383 31.6944 51.5466 31.5556 51.7376 31.4167C52.3277 30.9654 52.97 30.5835 53.5948 30.2017C55.2612 29.1775 56.754 28.0667 57.9169 26.4697C59.0625 24.9076 57.9169 22.1998 56.0423 21.8526C51.8938 21.0889 47.9362 23.3627 44.3258 25.1332C40.2641 27.112 36.4801 29.6809 33.078 32.6317C29.6412 35.5999 26.673 39.002 23.9826 42.6645C22.7155 44.4003 21.5352 46.2055 20.3895 48.028C19.9035 48.8265 19.4522 49.6423 18.9662 50.4407C18.7232 50.8573 18.4455 51.2566 18.1851 51.6558C18.0463 51.8467 17.9074 52.0377 17.7685 52.2286C18.1851 51.6731 17.5776 52.4542 17.4908 52.541C17.3867 52.6452 17.2825 52.7667 17.1784 52.8708C18.7753 53.8081 20.3722 54.7281 21.9691 55.6654C22.0385 55.1968 22.16 54.7628 22.2989 54.3115C22.3683 54.0859 22.4551 53.8602 22.5419 53.6346C22.2989 54.2594 22.6113 53.4957 22.6634 53.4089C23.1321 52.4195 23.7049 51.4996 24.2603 50.5622C25.3886 48.7223 26.4474 46.8303 27.6103 44.9904C28.8254 43.0811 30.1099 41.2238 31.4638 39.4012C31.62 39.1756 31.7936 38.9673 31.9498 38.759C32.4879 38.0473 31.62 39.1756 32.1754 38.4813C32.5052 38.0473 32.8524 37.6308 33.1822 37.2142C33.9112 36.3116 34.6576 35.4263 35.4213 34.5584C38.3201 31.2258 41.4965 28.1187 44.8986 25.3241C45.3152 24.9943 45.7318 24.6645 46.1484 24.3347C45.6971 24.6993 46.374 24.1612 46.4088 24.1265C46.6171 23.9702 46.8253 23.814 47.051 23.6578C47.8147 23.1024 48.5785 22.5643 49.3943 22.0782C51.0606 21.1062 52.7617 20.2383 54.2371 18.9712C54.5148 18.7282 54.7578 18.4678 54.9835 18.1901C55.6604 17.3396 56.0423 16.437 55.7472 15.3261C55.4695 14.3194 54.6884 13.573 53.699 13.2779C51.7376 12.6877 49.5852 13.139 47.6932 13.7639C46.7038 14.0937 45.7318 14.5103 44.7771 14.9269C44.4126 15.0831 44.0307 15.2393 43.6662 15.3955C43.4927 15.465 42.8851 15.7253 43.701 15.3782C43.3191 15.5344 42.9198 15.6906 42.538 15.8642C38.6499 17.5826 34.9527 19.7176 31.5332 22.2345C28.0269 24.8208 24.6769 27.7889 21.917 31.1563C19.1571 34.5411 16.7444 38.2383 14.6094 42.109C14.1408 42.9422 13.7242 43.7927 13.2902 44.6259C13.0646 45.0599 12.8216 45.4764 12.5439 45.893C12.8563 45.4244 12.4918 45.9451 12.4224 46.0319C12.3356 46.136 12.2314 46.2228 12.1446 46.3096C12.3703 46.1187 12.3703 46.084 12.1446 46.2402C13.3944 46.9518 14.6441 47.6635 15.8939 48.3925C15.8939 48.1842 15.9113 47.976 15.9286 47.7503C15.8765 48.3578 15.9807 47.6462 15.998 47.5594C16.1022 47.1081 16.2584 46.6568 16.4146 46.2228C16.6924 45.4764 16.2063 46.6915 16.5188 45.9625C16.2931 46.4832 17.161 44.4871 16.7965 45.3029C17.0221 44.7995 17.2478 44.2961 17.4734 43.8101C18.376 41.9008 19.3307 40.0261 20.3895 38.2036C21.5004 36.2942 22.7155 34.4543 23.9826 32.6491C24.5901 31.7812 25.2323 30.9307 25.8746 30.0975C25.5274 30.5488 26.0655 29.8545 26.0829 29.8371C26.2391 29.6288 26.4127 29.4206 26.5689 29.2123C26.9508 28.7262 27.3326 28.2576 27.7145 27.7716C30.4397 24.3 33.3731 20.9847 36.619 17.9992C37.3827 17.2875 38.1812 16.6106 38.997 15.951C39.2053 15.7774 39.3962 15.6212 39.6045 15.465C39.6913 15.3955 40.3336 14.8922 39.6913 15.3782C40.0732 15.0831 40.4898 14.8227 40.889 14.545C42.6248 13.3994 44.3605 12.2364 45.4888 10.4486C45.5235 10.3965 45.5582 10.3444 45.5756 10.275C46.4261 8.76488 45.6971 6.56045 43.9092 6.16123C39.9517 5.27598 36.0288 7.27212 32.5052 8.81696C28.4262 10.6222 24.7463 13.1737 21.3095 15.9683C17.8727 18.7803 14.9566 21.9915 12.2488 25.4977C10.7907 27.3897 9.38475 29.3164 7.96142 31.2258C7.49276 31.8506 7.11089 32.5102 6.69431 33.1698C6.46866 33.517 6.24301 33.8468 6 34.1766C6.38187 33.6558 5.98264 34.1766 5.91321 34.2634C5.73963 34.4543 5.56606 34.6279 5.37512 34.8014C5.86114 34.3675 5.47927 34.6973 5.32305 34.7841C5.86114 34.4717 5.58341 34.6799 5.34041 34.732C6.39923 35.3395 7.45805 35.9297 8.51687 36.5372C8.43008 36.3289 8.34329 35.652 8.41272 36.3636C8.41272 36.2421 8.41272 36.1206 8.41272 35.9991C8.43008 35.3569 8.29122 36.5719 8.44744 35.9123C8.49951 35.6346 8.60366 35.3743 8.69044 35.1139C8.74252 34.975 8.79459 34.8535 8.84666 34.7147C8.62101 35.2875 8.89874 34.6279 8.93345 34.5584C9.50626 33.326 10.1659 32.111 10.8254 30.9133C12.4397 27.9799 14.2796 25.1853 16.2931 22.5122C18.0636 20.1515 20.0945 17.7909 22.3683 15.4823C23.4966 14.3541 24.6422 13.2432 25.8225 12.1844C27.0028 11.1255 28.2352 10.1535 29.0163 8.74753C29.5891 7.72342 29.3288 6.12651 28.1832 5.58842C25.5101 4.33867 22.8023 5.18919 20.3201 6.49102C17.7859 7.82757 15.5467 9.68484 13.4291 11.6115C11.3115 13.5383 9.3674 15.6385 7.54484 17.8603C6.20829 19.4919 4.90646 21.1583 3.67407 22.8767C3.46577 23.1718 3.25748 23.4842 3.04919 23.7967C2.94504 23.9702 2.82354 24.1265 2.70203 24.3C2.68468 24.3347 2.28545 24.8728 2.56317 24.5083C2.32016 24.8034 2.07716 25.0985 1.78208 25.3415C2.12923 25.0117 1.78208 25.3241 1.67793 25.3936C2.09451 25.1506 1.81679 25.3241 1.62586 25.3589C2.52846 26.0532 3.44842 26.7475 4.35102 27.4418C4.24687 25.8275 4.85439 24.3521 5.63549 22.8073C6.48602 21.1236 7.54484 19.5614 8.51687 17.9471C9.55833 16.2113 10.756 14.4582 11.9884 12.9307C12.6306 12.1323 13.3076 11.3512 14.0019 10.6048C14.3491 10.2229 14.7136 9.85842 15.0781 9.49391C15.0954 9.47655 15.703 8.9211 15.3037 9.19883C15.4079 9.12939 15.512 9.05996 15.5988 8.97318C16.7791 8.10529 17.9247 7.16797 18.7926 5.98765C19.8515 4.54696 19.7473 2.44668 17.8553 1.76972C16.4493 1.26635 14.8004 2.16895 13.62 2.8459C13.3597 2.98476 13.1167 3.14098 12.8737 3.31456C12.6654 3.45342 12.4744 3.59228 12.2835 3.7485C12.7001 3.40135 12.4397 3.627 12.3529 3.69643C11.9884 3.97415 11.6586 4.23452 11.3462 4.56432C10.5651 5.38013 9.83605 6.24801 9.07231 7.06383C8.69044 7.46305 8.30858 7.84492 7.90935 8.20944C7.82256 8.27887 7.75313 8.3483 7.66634 8.41773C8.10028 8.05322 7.77049 8.3483 7.64898 8.41773C7.57955 8.45244 7.51012 8.50452 7.44069 8.53923C7.77049 8.41773 7.85727 8.38301 7.6837 8.43509C7.51012 8.48716 7.61427 8.4698 7.99614 8.40037C8.51687 8.3483 9.00288 8.76488 9.28061 9.14675C9.47154 9.42448 9.40211 9.44183 9.43683 9.75427C9.41947 9.66748 9.43683 9.5807 9.43683 9.49391C9.45418 9.2509 9.35004 9.89313 9.45418 9.3724C9.62776 8.48716 9.9402 7.93171 10.4956 7.15062C11.6065 5.58842 13.0299 4.26924 13.7763 2.41196C14.054 1.70029 13.4812 0.74562 12.7522 0.606758C12.1273 0.485254 11.6586 0.537328 11.0858 0.762978C10.3741 0.953913 9.87077 1.61351 10.0964 2.42932C10.3047 3.15834 11.1205 3.67907 11.8669 3.43607Z" fill="#D4EEF9"/>
<path d="M50.1755 29.9941C50.0193 27.3905 47.7454 25.377 45.5931 24.7174C45.4889 24.6827 45.4021 24.6653 45.298 24.6653C45.107 24.6653 44.9161 24.7174 44.7599 24.8389C44.2392 24.5264 43.6664 24.1967 43.0588 23.9016C43.0415 23.7453 43.0241 23.5891 43.0068 23.4329C42.5381 20.5342 40.3163 17.7917 36.9142 15.9517C36.1505 15.5352 35.3347 15.1706 34.4841 14.8582C34.4668 14.6673 34.4321 14.4763 34.3973 14.3028C33.8766 11.7685 31.325 10.3452 29.3115 9.8939C29.2247 9.87654 29.1553 9.87654 29.0685 9.87654C29.0338 9.87654 28.9817 9.87654 28.947 9.87654C28.5999 9.73768 28.218 9.63353 27.8188 9.58146C27.8361 9.35581 27.8535 9.13016 27.8708 8.90451C27.9056 8.43585 27.9229 8.00191 27.975 7.79361C28.3048 6.24878 29.0165 4.89488 30.0579 3.87077C30.4919 3.45418 31.0299 3.07232 31.7763 2.67309C32.0541 2.53423 32.3665 2.43008 32.7136 2.30858C33.2344 2.135 33.7725 1.96142 34.2411 1.63162C34.5362 1.42333 34.6751 1.07618 34.6056 0.729024C34.5362 0.399227 34.2932 0.138862 33.9634 0.0694309C33.7551 0.0173577 33.5295 0 33.3038 0C31.8458 0 30.2662 0.98939 29.4504 1.56219C28.218 2.44744 27.2112 3.71455 26.5343 5.24203C25.9962 6.43971 25.7185 7.81097 25.6491 9.39052C25.6491 9.45995 25.6491 9.54674 25.6491 9.63353C23.3405 10.0154 21.2923 11.2478 20.6847 11.6297C19.1052 12.6538 17.9596 14.3895 17.6124 16.3162C15.6857 17.6007 14.0194 19.3538 12.787 21.3847C11.867 22.1137 10.895 22.808 9.94033 23.4676C9.02037 24.1099 8.06569 24.7695 7.16309 25.4811C5.7224 26.6094 4.64623 28.241 4.10814 30.0636C3.60476 31.7646 3.67419 33.5698 4.31643 35.3056C4.45529 35.861 4.64623 36.295 4.90659 36.6074C5.58354 37.8572 6.55557 38.9507 7.70118 39.8186C8.23927 40.5129 8.84679 41.2072 9.59317 41.7627C9.57581 42.0577 9.57581 42.3528 9.62789 42.6479C9.61053 43.6199 9.97504 44.349 10.6867 44.7655C11.2595 45.3383 12.0753 45.6681 12.8911 45.6681C13.5507 45.6681 14.1409 45.4599 14.6096 45.0606C14.6963 45.1995 14.7831 45.321 14.8699 45.4599C15.4948 46.536 15.8767 47.7164 16.2759 48.9661L16.3974 49.348C16.9702 51.5524 17.5777 53.8089 20.4938 55.2496C21.7609 55.9613 23.3752 56.3779 25.3193 56.4994C25.597 56.5167 25.8747 56.5167 26.1524 56.5167C27.6452 56.5167 29.19 56.2911 30.7349 55.8571C33.2864 55.2843 37.7995 53.7395 39.6914 49.834C39.9692 49.2612 40.2295 48.6016 40.4378 47.9246C41.028 46.3798 41.2189 44.7655 41.3057 43.3769C41.3925 42.5438 41.4446 41.6585 41.4619 40.7386C41.4793 40.4088 41.514 40.0616 41.5314 39.7318C41.5487 39.5756 41.5487 39.4194 41.5661 39.2458C41.6529 39.2805 41.7223 39.3152 41.8091 39.3326C42.0521 39.4194 42.2951 39.4541 42.5381 39.4541C43.4754 39.4541 44.3954 38.8292 44.8814 37.8745C45.2112 37.1976 45.2806 36.4686 45.0723 35.8437C45.2806 35.7916 45.4889 35.7395 45.6972 35.6701C46.3915 35.4445 47.0685 35.0973 47.676 34.6634C48.9605 34.1947 49.6548 33.3962 49.7589 32.2159C50.0714 31.5042 50.2276 30.7579 50.1755 29.9941Z" fill="white"/>
<path d="M9.59277 37.9262C9.59277 37.9262 14.6439 41.2935 16.1019 45.1817C17.5773 49.0698 17.0392 52.1248 21.3613 53.7911C25.666 55.4748 35.5425 54.2077 38.2851 48.5317C41.0102 42.8557 39.5522 33.1875 39.5522 33.1875L9.59277 37.9262Z" fill="#FA9B1E"/>
<path d="M11.4673 40.3564C12.9775 41.5194 14.4876 42.6129 15.4596 44.2793C16.3796 45.8588 16.7788 47.6814 17.4037 49.3651C17.9418 50.8231 18.7055 52.0903 19.9553 53.0276C21.3786 54.1038 23.2879 54.4856 25.0237 54.5898C28.7036 54.7981 32.6611 53.4789 35.5598 51.2224C37.1047 50.0247 38.2677 48.5319 38.9793 46.7094C39.6389 45.0083 39.7604 43.1163 39.8472 41.3111C39.934 39.4365 40.1596 37.5619 40.1944 35.6872C40.1944 35.4616 39.8646 35.3574 39.7604 35.5657C38.962 37.2841 38.9967 39.2108 38.9099 41.0681C38.8231 42.9775 38.6842 44.8694 37.9899 46.6573C36.4972 50.4933 32.1751 52.6283 28.3738 53.4094C26.4471 53.8087 24.4162 53.7913 22.5069 53.2532C20.6669 52.7325 19.3998 51.5869 18.5493 49.9032C17.7856 48.3931 17.3863 46.7094 16.692 45.1472C15.963 43.5155 14.9042 42.179 13.4461 41.1375C12.8733 40.7383 12.2658 40.3912 11.6583 40.0614C11.5021 40.0093 11.3111 40.2349 11.4673 40.3564Z" fill="#824B03"/>
<path d="M11.6929 38.5681C10.634 40.3559 9.59257 43.2894 11.9011 43.6192C14.2097 43.9316 14.1056 40.9982 15.7893 41.7272C17.473 42.4562 18.5144 44.7822 20.094 43.6192C21.6735 42.4562 22.715 39.9394 23.7738 40.5642C24.8326 41.1891 26.8288 41.9355 28.0785 40.3559C29.3456 38.7764 29.0159 36.9885 30.6995 37.6308C32.3832 38.2557 33.1123 39.4186 34.796 38.464C36.4797 37.5266 36.688 35.409 38.58 36.4678C40.4719 37.5266 41.9473 38.8805 42.4681 37.301C42.9888 35.7214 44.0476 34.246 42.1556 33.3087C40.281 32.354 11.6929 38.5681 11.6929 38.5681Z" fill="#FF2E63"/>
<path d="M6.22532 35.931C9.801 39.715 9.90515 43.7072 19.6775 40.2357C29.4499 36.7641 29.8665 34.039 38.3892 34.1431C46.9118 34.2473 49.1162 33.8307 47.4325 29.092C45.7488 24.3707 28.7209 17.8442 20.0073 21.3158C11.2764 24.7873 5.72194 26.7835 5.288 31.2965C4.85406 35.8268 6.22532 35.931 6.22532 35.931Z" fill="#53C4D0"/>
<path d="M24.7292 14.911C21.8651 15.2582 16.4322 17.8618 14.1062 21.316C11.7803 24.7702 7.16315 29.4047 11.9018 32.668C16.6231 35.9312 21.4659 27.721 26.0831 28.884C30.7002 30.0469 39.2228 33.1887 41.1148 26.4712C43.0068 19.7538 34.1891 13.7654 24.7292 14.911Z" fill="#97D6D0"/>
<path d="M13.5503 21.714C11.7451 23.1894 9.73159 24.4045 7.89167 25.8452C6.57249 26.8866 5.63517 28.3447 5.16651 29.9416C4.19448 33.2569 5.77403 36.7111 8.46448 38.7072C14.1404 42.9078 22.1944 40.4603 27.801 37.4054C30.4393 35.9647 33.2339 34.7497 36.2889 34.5934C39.0488 34.4546 41.7392 35.4787 44.4644 34.5761C46.5299 33.8991 48.4914 32.0592 48.3525 29.7333C48.2136 27.5983 46.339 25.8104 44.3776 25.2203C44.0131 25.1161 43.7874 25.6369 44.1172 25.8278C45.5926 26.713 47.2242 27.876 47.4673 29.7333C47.745 31.8509 45.5753 33.4131 43.7701 33.9338C41.6871 34.5414 39.4654 33.8991 37.3651 33.795C35.2301 33.6908 33.1124 34.1942 31.1336 34.958C29.2764 35.687 27.5753 36.7111 25.7701 37.5616C24.1558 38.3253 22.4721 38.9502 20.7364 39.4189C17.3169 40.3388 13.4809 40.5645 10.235 38.9155C7.07586 37.3012 4.97558 33.8818 5.77403 30.3061C6.1559 28.5877 7.24944 27.1123 8.63805 26.0708C10.4085 24.7343 12.2658 23.5887 13.828 21.9917C14.0189 21.8008 13.7412 21.5578 13.5503 21.714Z" fill="#267B86"/>
<path d="M11.1383 26.5048C9.59351 29.2299 10.8953 32.5626 13.5337 34.0554C14.9744 34.8712 16.6581 34.8538 18.1682 34.2463C19.8866 33.552 21.2232 32.1634 22.6639 31.0698C24.4343 29.7333 26.5867 29.1258 28.7911 29.4382C30.7873 29.7159 32.6445 30.6185 34.6928 30.6532C38.3032 30.7227 42.0177 27.1991 41.4275 23.4845C40.9415 20.4643 38.4594 18.121 35.8731 16.715C33.1826 15.2396 30.0409 14.58 26.9859 14.5279C23.8442 14.4759 20.7198 15.2222 18.0641 16.9407C15.148 18.8326 12.8394 21.8876 11.9368 25.2376C11.85 25.5501 12.336 25.7757 12.4575 25.4633C14.0197 21.8355 16.2242 18.6591 19.8172 16.8018C22.7854 15.257 26.3437 15.066 29.6069 15.552C32.8008 16.0381 36.0467 17.2878 38.3379 19.6311C39.5529 20.8635 40.5597 22.5298 40.5944 24.283C40.6465 26.5048 38.8586 28.4141 36.984 29.3341C34.2067 30.688 31.2039 28.9001 28.4093 28.5877C25.5105 28.2752 23.1152 29.6812 20.9628 31.4517C18.8105 33.2395 16.2762 34.9406 13.5164 33.309C11.3119 32.0071 10.2184 28.9869 11.3814 26.6436C11.4855 26.4874 11.2425 26.3485 11.1383 26.5048Z" fill="#3C939E"/>
<path d="M27.3501 11.2482C22.6462 10.4844 17.4736 15.7612 19.2615 19.9791C21.0493 24.1796 30.7175 23.3465 32.2971 17.4622C33.7551 11.9772 30.6134 11.7689 27.3501 11.2482Z" fill="#FF2E63"/>
<path d="M29.3457 11.5435C27.1066 9.51261 23.0449 11.1269 20.8751 12.5155C18.3756 14.1124 17.3689 17.5492 18.6186 20.2223C19.8163 22.7913 22.8713 23.6591 25.4923 23.2599C27.9224 22.8954 30.2309 21.4026 31.7237 19.4759C32.7825 18.122 33.5116 16.4036 33.147 14.6679C32.7305 12.637 30.6128 11.3352 28.7208 10.9186C28.4605 10.8665 28.1654 11.0401 28.1827 11.3178C28.2001 11.5261 28.2001 11.7344 28.2175 11.9427C28.391 11.8212 28.5472 11.6823 28.7208 11.5608C28.4778 11.4567 28.2348 11.4046 27.9918 11.3525C27.4884 11.2484 27.2801 12.0121 27.7835 12.1163C28.0265 12.1683 28.2869 12.2204 28.5125 12.3246C28.7555 12.4287 28.9985 12.1857 29.0159 11.9427C29.0159 11.7344 29.0333 11.5261 29.0506 11.3178C28.877 11.4567 28.6861 11.5955 28.5125 11.717C29.797 12.2031 31.0988 12.7064 31.8799 13.9041C32.4527 14.772 32.4527 15.8308 32.1924 16.8029C31.5328 19.1288 29.3457 20.934 27.2107 21.8713C24.6418 22.9996 21.257 22.8086 19.556 20.3091C18.6186 18.9378 18.636 17.1847 19.1914 15.6746C19.7816 14.0603 21.1008 13.0189 22.5936 12.2898C24.4161 11.4046 27.3149 10.4846 29.1721 11.7518C29.311 11.8906 29.4846 11.665 29.3457 11.5435Z" fill="#72031C"/>
<path d="M23.722 13.2444C24.3643 13.3486 24.8503 13.9214 25.4925 14.0429C26.1174 14.1817 26.8811 13.7131 26.7596 13.0188C26.7249 12.8278 26.4819 12.689 26.3083 12.7584C26.0306 12.8625 25.9959 13.0535 25.7702 13.2097C25.614 13.3312 25.3189 13.1923 25.1627 13.1403C24.6941 12.984 24.2948 12.7584 23.7915 12.7758C23.5311 12.8105 23.4443 13.2097 23.722 13.2444Z" fill="#72031C"/>
<path d="M25.1105 13.47C26.9852 13.8172 26.7248 9.25211 26.9505 8.17594C27.2803 6.61374 27.9919 5.19041 29.1375 4.06216C29.6756 3.54143 30.3005 3.1422 30.9427 2.8124C31.6544 2.43053 32.5917 2.32639 33.234 1.85773C33.3728 1.75358 33.3728 1.51058 33.1819 1.47586C31.9495 1.19814 30.3179 2.13545 29.3458 2.8124C28.1829 3.64557 27.315 4.80854 26.7422 6.09301C26.2041 7.29069 25.9958 8.55781 25.9437 9.85964C25.909 10.6407 26.0652 12.8625 25.0932 13.2097C24.989 13.2444 24.9717 13.4527 25.1105 13.47Z" fill="#3C2415"/>
<path d="M10.8771 39.8187C10.2175 40.9469 10.391 42.4397 11.2763 43.4117C12.1442 44.3491 13.7932 44.5053 14.5742 43.4117C15.0603 42.7348 15.5984 41.9537 16.553 42.1967C17.23 42.3703 17.7854 43.2208 18.3582 43.62C18.931 44.0366 19.6601 44.2275 20.3544 44.0713C21.0834 43.9151 21.5868 43.1687 22.0033 42.6306C22.3852 42.1273 22.8712 41.3462 23.5308 41.1726C24.0342 41.0511 24.7632 41.3635 25.2666 41.433C26.8982 41.676 27.9397 41.1032 28.9464 39.8708C29.4498 39.2459 29.9358 38.6904 30.6475 38.2912C31.4286 37.8573 32.3138 38.4127 33.0255 38.7078C34.4835 39.298 35.8027 38.7599 36.931 37.8052C37.4344 37.3886 37.8336 37.0588 38.5105 37.0762C39.4826 37.0935 40.2289 37.7878 41.1142 38.0656C42.85 38.6384 44.3774 36.0694 43.0235 34.8544C42.6243 34.5072 42.1036 34.9412 42.3119 35.3925C42.5722 35.9653 42.5375 36.4166 42.0862 36.8679C41.6176 37.3365 41.0448 36.9373 40.6108 36.6769C39.8991 36.2604 39.0139 36 38.1807 36.0347C36.8789 36.0868 36.1846 37.3539 35.0563 37.8226C33.5462 38.4648 32.2097 36.8852 30.6301 37.2497C29.1027 37.5969 28.4257 39.2632 27.3495 40.2006C26.1518 41.242 24.6938 40.0964 23.3746 40.3221C21.8992 40.5651 21.4653 42.4744 20.3544 43.2208C19.5212 43.7762 18.5318 42.8563 17.959 42.3182C17.473 41.8495 16.987 41.5024 16.31 41.4156C15.6504 41.3288 14.9735 41.7454 14.5569 42.1967C13.9494 42.8389 13.7931 43.62 12.717 43.4117C11.068 43.0993 10.9465 41.2594 11.2589 39.9575C11.3284 39.7493 10.9986 39.6104 10.8771 39.8187Z" fill="#990326"/>
<path d="M29.711 13.209C28.6869 13.209 28.062 14.7885 29.2423 15.1878C30.4227 15.5696 30.6657 13.209 29.711 13.209Z" fill="white"/>
<path d="M30.4227 15.8814C29.9193 16.0202 29.3118 17.2179 30.1796 16.9923C31.0475 16.7492 30.9781 15.7251 30.4227 15.8814Z" fill="white"/>
<path opacity="0.3" d="M13.2385 25.9854C12.6483 27.3567 12.0581 32.373 15.1304 32.373C18.2028 32.373 21.2056 29.0577 19.3831 29.0577C17.5779 29.0577 13.9501 30.1686 14.1063 28.6585C14.2626 27.1657 14.1063 23.9372 13.2385 25.9854Z" fill="white"/>
<path opacity="0.3" d="M38.1461 21.1758C40.4374 21.1758 39.4827 27.5634 36.0979 28.3445C32.7132 29.1256 29.5541 27.0774 31.3766 26.6955C33.1818 26.2963 36.1847 25.7582 36.4277 24.0919C36.6534 22.4255 37.2783 21.1758 38.1461 21.1758Z" fill="white"/>
<path opacity="0.3" d="M7.71883 28.7444C5.9657 30.4976 6.60793 37.9614 11.8152 38.2738C17.0226 38.5863 9.4546 35.9826 8.65614 34.0212C7.87504 32.0424 8.51728 27.946 7.71883 28.7444Z" fill="white"/>
<path opacity="0.3" d="M43.6666 26.8516C45.7148 28.5873 46.8951 31.3472 44.3783 32.5275C41.8614 33.7079 39.0147 30.8786 40.5943 30.7223C42.1738 30.5661 44.222 30.1669 43.6666 29.1428C43.1111 28.1013 43.6666 26.8516 43.6666 26.8516Z" fill="white"/>
<path opacity="0.3" d="M38.3028 38.8984C37.5217 43.9495 37.6779 46.3102 35.7859 48.2022C33.8939 50.0942 28.999 51.0315 28.999 51.0315C28.999 51.0315 34.3626 48.9833 35.8553 45.6679C37.3654 42.37 38.3028 38.8984 38.3028 38.8984Z" fill="white"/>
<path d="M19.0014 46.2419C19.6957 49.401 22.2299 53.8098 21.8307 51.6054C21.4315 49.3836 18.6021 44.4193 19.0014 46.2419Z" fill="#BC7417"/>
<path d="M22.3859 44.1066C22.6289 48.5502 24.7466 54.9899 24.8333 52.3862C24.9028 49.7826 22.2991 42.6833 22.3859 44.1066Z" fill="#BC7417"/>
<path d="M26.2393 43.3251C26.2393 47.7861 27.4196 54.4341 27.8882 52.0734C28.3743 49.7128 26.2393 41.5894 26.2393 43.3251Z" fill="#BC7417"/>
<path d="M30.3532 41.658C29.7457 45.633 30.9086 53.5654 31.5335 50.7188C32.1584 47.8895 30.6656 39.6098 30.3532 41.658Z" fill="#BC7417"/>
<path d="M34.8309 40.7909C34.1019 45.6337 34.4317 51.3444 35.1433 48.8275C35.855 46.3107 35.3169 37.6492 34.8309 40.7909Z" fill="#BC7417"/>
</svg>
