<svg width="505" height="474" viewBox="0 0 505 474" fill="none" xmlns="http://www.w3.org/2000/svg">
<circle cx="190" cy="190" r="190" fill="#FF2E63" fill-opacity="0.05"/>
<ellipse cx="236.976" cy="237.13" rx="142.976" ry="143.13" fill="#08D9D6" fill-opacity="0.2"/>
<path d="M361.654 335.368H449.785L450.719 308.242C450.759 307.066 450.545 305.896 450.09 304.811C449.635 303.726 448.951 302.752 448.084 301.957C447.218 301.163 446.189 300.565 445.07 300.206C443.951 299.848 442.767 299.736 441.6 299.879L390.314 306.165H390.308C382.705 306.186 375.42 309.223 370.049 314.61C364.678 319.998 361.659 327.297 361.654 334.909V335.368Z" fill="#FF2E63"/>
<path d="M401.309 239H462.776C463.593 239 464.403 239.161 465.158 239.474C465.913 239.787 466.599 240.246 467.177 240.825C467.755 241.403 468.214 242.09 468.527 242.846C468.839 243.602 469 244.413 469 245.231V306.764C469 307.582 468.839 308.393 468.527 309.149C468.214 309.905 467.755 310.592 467.177 311.17C466.599 311.749 465.913 312.208 465.158 312.521C464.403 312.834 463.593 312.995 462.776 312.995H401.309C400.491 312.995 399.682 312.834 398.927 312.521C398.171 312.208 397.485 311.749 396.907 311.17C396.329 310.592 395.871 309.905 395.558 309.149C395.245 308.393 395.084 307.582 395.084 306.764V245.231C395.084 244.413 395.245 243.602 395.558 242.846C395.871 242.09 396.329 241.403 396.907 240.825C397.485 240.246 398.171 239.787 398.927 239.474C399.682 239.161 400.491 239 401.309 239Z" fill="#08D9D6"/>
<path d="M395.084 274.231V282.41H469V274.231C469 273.413 468.839 272.602 468.527 271.846C468.214 271.09 467.755 270.403 467.177 269.825C466.599 269.246 465.913 268.787 465.158 268.474C464.403 268.161 463.593 268 462.776 268H401.309C400.491 268 399.682 268.161 398.927 268.474C398.171 268.787 397.485 269.246 396.907 269.825C396.329 270.403 395.871 271.09 395.558 271.846C395.245 272.602 395.084 273.413 395.084 274.231Z" fill="#08D9D6"/>
<path d="M247.107 256.118C247.534 254.739 248.257 253.47 249.227 252.401C250.196 251.333 251.388 250.49 252.718 249.932C254.048 249.374 255.484 249.115 256.925 249.173C258.366 249.231 259.777 249.604 261.058 250.267L345.621 219.895L349.346 241.043L265.051 264.248C263.797 266.329 261.823 267.876 259.504 268.598C257.186 269.319 254.684 269.164 252.472 268.162C250.26 267.16 248.492 265.38 247.503 263.16C246.515 260.94 246.374 258.435 247.107 256.118Z" fill="#FFCBCB"/>
<path opacity="0.2" d="M247.107 256.118C247.534 254.739 248.257 253.47 249.227 252.401C250.196 251.333 251.388 250.49 252.718 249.932C254.048 249.374 255.484 249.115 256.925 249.173C258.366 249.231 259.777 249.604 261.058 250.267L345.621 219.895L349.346 241.043L265.051 264.248C263.797 266.329 261.823 267.876 259.504 268.598C257.186 269.319 254.684 269.164 252.472 268.162C250.26 267.16 248.492 265.38 247.503 263.16C246.515 260.94 246.374 258.435 247.107 256.118Z" fill="#252A34"/>
<path d="M330.611 223.748L338.597 244.633C338.824 245.227 339.176 245.765 339.63 246.211C340.084 246.656 340.628 246.999 341.226 247.215C341.824 247.431 342.461 247.515 343.095 247.462C343.728 247.409 344.343 247.22 344.896 246.908L364.304 235.973C367.334 234.792 369.772 232.457 371.085 229.478C372.397 226.5 372.477 223.122 371.305 220.086C370.134 217.049 367.808 214.601 364.836 213.279C361.865 211.957 358.491 211.868 355.455 213.032L333.783 217.843C333.163 217.981 332.579 218.252 332.072 218.636C331.566 219.02 331.147 219.508 330.846 220.069C330.545 220.629 330.369 221.248 330.328 221.883C330.288 222.518 330.384 223.154 330.611 223.748Z" fill="#FF2E63"/>
<path d="M240.451 275.455L270.752 289.243L266.774 304.236C259.092 333.188 257.053 363.351 260.769 393.076L238.615 397.708L220.251 350.829L226.678 297.516L240.451 275.455Z" fill="#FF2E63"/>
<path d="M180.997 344.854C200.906 344.854 217.13 359.342 217.917 377.485H144.077C144.864 359.342 161.088 344.854 180.997 344.854Z" fill="#252A34"/>
<path d="M196.494 347.982C197.53 266.083 244.123 273.618 244.123 273.618C244.123 273.618 243.251 299.11 242.833 299.903C213.142 356.138 262.143 422.067 324.516 409.938C325.692 409.709 326.822 409.477 327.906 409.242C335.809 407.59 342.787 402.987 347.42 396.368C352.053 389.749 353.994 381.612 352.847 373.612C346.703 324.218 377.263 325.092 377.263 325.092H421.949L445.155 304.184C445.974 303.446 446.961 302.921 448.03 302.653C449.099 302.385 450.218 302.384 451.287 302.648C452.357 302.913 453.346 303.437 454.167 304.172C454.988 304.908 455.617 305.834 455.998 306.869L458.983 314.981C458.983 314.981 503.057 319.577 499.384 362.779H485.758C485.791 364.007 485.742 365.235 485.611 366.456L383.919 365.628C377.958 365.58 372.696 370.415 372.672 376.383C372.666 377.835 372.952 379.275 373.515 380.614C374.077 381.953 374.903 383.165 375.944 384.178C376.986 385.19 378.22 385.981 379.573 386.505C380.927 387.029 382.373 387.274 383.823 387.225L400.218 386.678C405.268 409.199 392.872 424.365 379.214 433.902C366.354 442.751 351.095 447.442 335.491 447.345H290.951C233.105 447.345 223.004 398.628 223.004 398.628C192.704 385.759 196.494 347.982 196.494 347.982Z" fill="#252A34"/>
<path d="M183.751 474.001C155.226 474.001 132.102 450.852 132.102 422.296C132.102 393.741 155.226 370.592 183.751 370.592C212.276 370.592 235.4 393.741 235.4 422.296C235.4 450.852 212.276 474.001 183.751 474.001Z" fill="#252A34"/>
<path d="M183.752 434.968C176.761 434.968 171.093 429.295 171.093 422.296C171.093 415.297 176.761 409.623 183.752 409.623C190.743 409.623 196.411 415.297 196.411 422.296C196.411 429.295 190.743 434.968 183.752 434.968Z" fill="white"/>
<path d="M444.522 474C411.686 474 385.068 447.353 385.068 414.483C385.068 381.612 411.686 354.965 444.522 354.965C477.357 354.965 503.976 381.612 503.976 414.483C503.976 447.353 477.357 474 444.522 474Z" fill="#252A34"/>
<path d="M444.522 429.07C436.474 429.07 429.95 422.539 429.95 414.482C429.95 406.426 436.474 399.895 444.522 399.895C452.57 399.895 459.094 406.426 459.094 414.482C459.094 422.539 452.57 429.07 444.522 429.07Z" fill="white"/>
<path d="M270.665 293.316L281.568 263.672C282.136 262.128 282.395 260.486 282.329 258.841C282.263 257.196 281.875 255.58 281.185 254.085C280.495 252.59 279.519 251.246 278.31 250.13C277.102 249.013 275.686 248.145 274.142 247.577L242.887 236.058C240.171 235.057 237.285 234.601 234.394 234.717C231.503 234.832 228.662 235.517 226.035 236.731C223.408 237.945 221.045 239.666 219.083 241.794C217.12 243.923 215.595 246.417 214.595 249.135C213.693 251.575 213.233 254.156 213.235 256.758C213.247 260.061 213.993 263.32 215.421 266.298C216.848 269.276 218.921 271.899 221.488 273.974C223.342 275.463 225.426 276.64 227.658 277.457L270.665 293.316Z" fill="#252A34"/>
<path d="M213.694 256.758C213.697 259.994 214.424 263.188 215.822 266.106C217.221 269.023 219.255 271.59 221.775 273.616C225.641 272.595 229.238 270.744 232.317 268.19C235.397 265.637 237.883 262.443 239.605 258.83C241.326 255.218 242.241 251.273 242.285 247.27C242.33 243.268 241.503 239.304 239.863 235.654C236.714 234.968 233.451 234.997 230.314 235.739C227.177 236.481 224.247 237.917 221.737 239.941C219.227 241.965 217.202 244.526 215.81 247.436C214.418 250.347 213.695 253.532 213.694 256.758Z" fill="#FF2E63"/>
<path d="M491.58 368.753C484.48 368.753 478.725 361.756 478.725 353.126C478.725 344.496 484.48 337.5 491.58 337.5C498.679 337.5 504.435 344.496 504.435 353.126C504.435 361.756 498.679 368.753 491.58 368.753Z" fill="#FF2E63"/>
<path d="M321.655 408.44H310.398L305.042 379.213L321.657 379.214L321.655 408.44Z" fill="#FFCBCB"/>
<path d="M324.527 404.761L302.358 404.76H302.357C300.502 404.76 298.665 405.126 296.951 405.836C295.237 406.547 293.679 407.589 292.367 408.902C291.056 410.215 290.015 411.774 289.305 413.49C288.595 415.206 288.229 417.045 288.229 418.903V419.362L324.527 419.364L324.527 404.761Z" fill="#252A34"/>
<path d="M308.59 396.445C308.721 396.445 308.852 396.438 308.985 396.426L324.563 395.29C325.193 395.232 325.802 395.029 326.341 394.698C326.88 394.367 327.337 393.916 327.675 393.381C328.013 392.845 328.223 392.239 328.29 391.61C328.357 390.98 328.279 390.343 328.061 389.748L307.212 342.856C307.063 342.438 307.002 341.993 307.033 341.551C307.064 341.108 307.186 340.676 307.392 340.283C307.597 339.885 307.884 339.536 308.234 339.257C308.584 338.978 308.989 338.777 309.422 338.666C319.226 336.1 344.38 329.269 366.155 321.276C375.484 317.852 381.359 312.903 383.618 306.567C386.596 298.215 382.191 290.597 382.002 290.278L381.854 290.027L361.364 291.892L339.152 293.783L290.475 319.914C286.396 322.122 283.298 325.787 281.797 330.179C280.297 334.571 280.504 339.368 282.377 343.614L304.819 393.993C305.144 394.723 305.673 395.342 306.342 395.778C307.011 396.213 307.792 396.444 308.59 396.445Z" fill="#252A34"/>
<path d="M357.801 199.117C345.346 199.117 335.249 189.01 335.249 176.541C335.249 164.073 345.346 153.965 357.801 153.965C370.257 153.965 380.354 164.073 380.354 176.541C380.354 189.01 370.257 199.117 357.801 199.117Z" fill="#FFCBCB"/>
<path d="M328.083 411.198H316.826L311.47 381.971L328.085 381.972L328.083 411.198Z" fill="#FFCBCB"/>
<path d="M330.955 407.519L308.786 407.518H308.785C306.93 407.518 305.093 407.883 303.379 408.594C301.665 409.305 300.107 410.347 298.795 411.66C297.483 412.973 296.443 414.532 295.733 416.248C295.023 417.964 294.657 419.803 294.657 421.66V422.12L330.954 422.121L330.955 407.519Z" fill="#252A34"/>
<path d="M315.017 399.202C315.148 399.202 315.28 399.196 315.412 399.184L330.991 398.048C331.621 397.989 332.229 397.787 332.769 397.456C333.308 397.125 333.764 396.674 334.102 396.139C334.44 395.603 334.651 394.997 334.718 394.367C334.785 393.737 334.707 393.101 334.489 392.506L313.64 345.614C313.491 345.196 313.43 344.751 313.461 344.308C313.492 343.866 313.614 343.434 313.82 343.041C314.025 342.643 314.312 342.293 314.662 342.015C315.012 341.736 315.417 341.534 315.85 341.423C325.654 338.858 350.808 332.027 372.583 324.034C381.912 320.61 387.787 315.661 390.046 309.325C393.024 300.973 388.618 293.355 388.429 293.036L388.282 292.785L367.792 294.65L345.58 296.541L296.902 322.671C292.824 324.88 289.725 328.545 288.225 332.937C286.724 337.329 286.932 342.126 288.805 346.372L311.247 396.751C311.572 397.48 312.101 398.1 312.77 398.535C313.439 398.97 314.219 399.202 315.017 399.202Z" fill="#252A34"/>
<path d="M350.846 211.919L374.719 203.646C374.719 203.646 389.706 215.173 382.507 243.768C378.748 258.524 379.843 274.1 385.629 288.184C386.325 289.926 387.128 291.624 388.033 293.268C388.033 293.268 361.405 325.44 336.614 301.541L346.255 255.121C346.255 255.121 331.105 224.328 350.846 211.919Z" fill="#FF2E63"/>
<path d="M355.001 199.886C358.211 195.076 360.744 188.407 357.21 183.831C353.721 179.314 346.841 179.98 341.499 177.981C334.058 175.197 329.742 166.446 331.088 158.608C332.434 150.771 338.719 144.274 346.205 141.616C353.692 138.957 362.135 139.822 369.466 142.883C378.492 146.652 386.234 153.941 389.48 163.176C392.727 172.41 390.991 183.497 384.256 190.595C377.036 198.204 365.704 200.232 355.22 200.109" fill="#252A34"/>
<path d="M375.98 158.859C380.024 162.155 386.195 160.691 390.536 157.799C394.878 154.906 398.401 150.787 403.098 148.519C411.38 144.52 421.392 147.178 429.452 151.607C437.512 156.036 444.657 162.155 453.171 165.631C461.684 169.106 472.549 169.278 478.995 162.715C480.582 167.317 480.711 172.296 479.367 176.974C478.022 181.652 475.268 185.8 471.481 188.853C467.694 191.907 463.058 193.716 458.206 194.034C453.354 194.353 448.522 193.165 444.37 190.633C435.041 184.944 429.888 173.018 419.426 169.878C413.636 168.141 407.419 169.54 401.567 171.055C395.716 172.571 389.614 174.209 383.709 172.918C377.804 171.628 372.28 166.316 373.031 160.312L375.98 158.859Z" fill="#252A34"/>
<path d="M248.229 255.198C248.823 253.883 249.697 252.713 250.791 251.772C251.885 250.831 253.171 250.142 254.56 249.753C255.949 249.364 257.406 249.284 258.828 249.519C260.251 249.755 261.605 250.3 262.795 251.116L350.455 231.42L351.545 252.866L265.035 265.483C263.533 267.393 261.384 268.685 258.994 269.114C256.604 269.544 254.14 269.081 252.069 267.813C249.997 266.545 248.462 264.561 247.755 262.236C247.047 259.911 247.216 257.407 248.229 255.198Z" fill="#FFCBCB"/>
<path d="M335.086 233.39L340.436 255.101C340.588 255.718 340.872 256.296 341.267 256.794C341.662 257.292 342.16 257.699 342.727 257.988C343.294 258.276 343.916 258.438 344.551 258.464C345.186 258.49 345.819 258.378 346.407 258.137L367.014 249.683C370.168 248.887 372.879 246.871 374.55 244.076C376.221 241.282 376.717 237.939 375.929 234.779C375.14 231.62 373.132 228.902 370.344 227.223C367.557 225.544 364.218 225.041 361.06 225.823L338.961 227.921C338.328 227.982 337.716 228.178 337.166 228.496C336.615 228.815 336.14 229.248 335.772 229.767C335.405 230.286 335.153 230.878 335.035 231.503C334.916 232.128 334.933 232.772 335.086 233.39V233.39Z" fill="#FF2E63"/>
<path d="M258.356 272.238C254.806 272.238 251.928 269.357 251.928 265.803C251.928 262.25 254.806 259.369 258.356 259.369C261.906 259.369 264.783 262.25 264.783 265.803C264.783 269.357 261.906 272.238 258.356 272.238Z" fill="#FF2E63"/>
</svg>
