<svg width="80" height="80" viewBox="0 0 80 80" fill="none" xmlns="http://www.w3.org/2000/svg">
<circle cx="40" cy="40" r="40" fill="white"/>
<circle cx="40" cy="40" r="39.75" stroke="#FF2E63" stroke-opacity="0.2" stroke-width="0.5"/>
<circle cx="40.333" cy="40.334" r="35" fill="white"/>
<circle cx="40.333" cy="40.334" r="34.75" stroke="#FF2E63" stroke-opacity="0.2" stroke-width="0.5"/>
<path d="M52.3298 50.5738C53.5963 49.8542 54.6326 48.8755 55.4098 47.6953C53.4812 53.0493 51.6965 58.317 51.1208 64.0452C50.2285 64.4194 49.3362 64.7648 48.415 65.0526C48.8756 59.9577 50.027 55.2945 52.3298 50.689C52.3298 50.6602 52.3298 50.6026 52.3298 50.5738Z" fill="#F8BE66"/>
<path d="M47.4938 51.8112C48.9618 51.6673 50.4298 51.4658 51.7827 50.8613C49.4512 55.1791 48.0695 60.2452 48.1846 65.1387C47.0332 65.5129 45.853 65.8007 44.6729 66.0022C44.9319 61.1951 45.2198 56.5895 46.3712 51.8976C46.7454 51.8688 47.1196 51.84 47.4938 51.8112Z" fill="#F8BE66"/>
<path d="M45.911 51.9258C44.7596 56.445 44.0112 61.396 44.443 66.0304C43.1189 66.2607 41.766 66.3758 40.4131 66.4046C40.5282 61.5975 40.4994 56.7904 40.6721 51.9834C42.428 52.0697 44.1551 52.0409 45.911 51.9258Z" fill="#F8BE66"/>
<path d="M40.212 66.435C40.1544 66.435 40.0681 66.435 40.0105 66.435C38.8591 66.435 37.6789 66.3774 36.5275 66.2335C36.7866 61.2825 35.7503 56.0148 33.793 51.4668C35.9518 51.8122 38.1683 51.9274 40.2984 52.0137C40.0393 56.792 39.8954 61.6567 40.212 66.435Z" fill="#F8BE66"/>
<path d="M33.3029 51.379C35.1451 56.2149 36.0374 60.9932 36.2101 66.1744C35.1451 66.0305 34.0801 65.7714 33.0726 65.426C32.5832 60.2447 31.1728 55.121 29.3018 50.2852C30.5971 50.8033 31.9212 51.1199 33.3029 51.379Z" fill="#F8BE66"/>
<path d="M28.813 50.1713C30.684 55.0935 31.8642 60.1309 32.7565 65.3122C31.6627 64.8804 30.5976 64.3335 29.6477 63.5851C29.4462 60.4763 28.4675 57.2236 27.5464 54.2588C26.8844 52.1287 26.1935 49.8259 25.2148 47.7246C26.2511 48.7609 27.5752 49.5668 28.7554 50.085C28.7554 50.085 28.7842 50.085 28.7842 50.1138C28.813 50.1138 28.813 50.1425 28.813 50.1713Z" fill="#F8BE66"/>
<path d="M53.3955 28.9564C56.7634 32.1227 60.9084 36.3253 58.3753 40.8733C56.9936 43.3776 54.3742 44.4714 51.6109 44.0396C49.452 43.723 47.2643 42.8595 45.0767 43.5215C44.2707 43.7806 43.5223 44.1836 42.9178 44.7305C41.9391 45.594 41.3346 46.7742 40.1545 47.3787C37.3911 48.8179 34.3975 46.8894 32.4689 44.9895C31.2311 43.7806 30.1949 42.917 28.439 43.5791C26.9998 44.126 25.8771 44.6441 24.4091 43.7518C22.9986 42.8883 22.2215 41.2475 22.1639 39.6355C22.0487 36.4692 24.0637 33.7922 26.3665 31.8636C28.3239 30.2517 30.8569 29.1291 32.2386 26.9414C32.9294 26.999 33.6491 27.0278 34.3687 26.9414C33.0734 28.5246 31.7205 29.7623 29.8207 30.7122C29.7343 30.7698 29.7343 30.8849 29.7919 30.9713C29.7919 31.0289 29.7919 31.0864 29.8495 31.144C30.6267 31.9788 31.922 32.612 33.0446 32.9575C32.8719 33.6483 32.9007 34.3967 32.8431 35.1163C32.8143 35.6057 32.584 36.4692 32.8431 36.901C32.8431 36.9298 32.8719 36.9298 32.9007 36.9298C32.8431 37.0449 32.9582 37.1888 33.1022 37.1888C37.3048 36.5268 40.8741 32.0363 41.2483 27.6898C42.8602 31.8061 46.9189 35.0012 51.2367 35.7208C51.4094 35.7496 51.5245 35.5193 51.3806 35.433V35.4042C51.0064 33.9074 50.4883 32.1803 49.7974 30.7698C50.9488 30.1365 52.2441 29.7048 53.3955 28.9564ZM57.9148 38.8296C58.3177 38.3978 58.2026 37.6782 57.7421 37.3328C57.3391 37.0449 56.4755 37.1025 56.3316 37.6782C56.3316 37.7357 56.3316 37.7645 56.3604 37.7933C56.1589 38.0812 56.1589 38.4842 56.3892 38.772C56.7634 39.2613 57.483 39.2613 57.9148 38.8296ZM55.2378 42.2838C56.0437 41.8808 56.3316 40.7582 55.871 40.0098C55.3817 39.2038 54.1439 39.0023 53.4531 39.6355C53.3955 39.6643 53.3955 39.7219 53.3955 39.7795C52.9638 40.1825 52.8198 40.9021 53.0213 41.449C53.338 42.3126 54.4318 42.6868 55.2378 42.2838ZM55.209 38.2539C55.5832 38.0524 55.7559 37.5918 55.4968 37.2464C55.2953 36.9586 54.6908 36.7571 54.4318 37.0737L54.403 37.1025C54.1727 37.2752 54.1152 37.6206 54.2015 37.8797C54.3742 38.3115 54.8348 38.4266 55.209 38.2539ZM44.7601 36.3829C45.5372 36.2389 46.0842 35.433 45.9402 34.6558C45.7963 33.7634 44.7601 33.1877 43.9541 33.6771C43.8965 33.7059 43.8677 33.7634 43.8677 33.821C43.4072 34.0225 43.0617 34.5982 43.0905 35.1163C43.1481 35.9223 43.9829 36.498 44.7601 36.3829ZM42.9178 33.6771C43.3496 33.418 43.4647 32.756 43.1481 32.353C42.8602 31.9788 42.1406 31.8348 41.8528 32.2666C41.8528 32.2954 41.824 32.2954 41.824 32.2954C41.5361 32.5257 41.4498 32.9862 41.6225 33.3317C41.8528 33.7922 42.486 33.9361 42.9178 33.6771ZM41.8816 35.6344C42.2558 35.4905 42.486 35.0012 42.2558 34.627C42.1118 34.4255 41.6801 34.2528 41.4786 34.4543C41.421 34.4543 41.3634 34.4831 41.3059 34.5118C41.1332 34.5982 41.018 34.7709 41.018 34.9724C40.9892 35.4042 41.4498 35.7784 41.8816 35.6344ZM28.6693 42.0247C29.0723 41.7944 29.245 41.2187 28.8708 40.8733C28.7268 40.7294 28.439 40.643 28.2087 40.6718C27.7769 40.643 27.4891 41.1036 27.6042 41.5066C27.6906 41.9671 28.2087 42.255 28.6693 42.0247ZM28.4966 38.6857C30.2524 37.4191 27.633 35.2602 26.7119 36.6131C26.1074 36.9586 25.9635 37.7645 26.3665 38.3402C26.827 39.0599 27.8345 39.175 28.4966 38.6857ZM27.0285 35.0012C27.3164 34.627 27.23 34.0513 26.8558 33.7634C26.6831 33.6195 26.4241 33.5907 26.2226 33.6195C26.0211 33.6483 25.7332 33.7922 25.6756 34.0225C25.6756 34.0801 25.6756 34.1089 25.7044 34.1376C25.5317 34.4255 25.5317 34.7709 25.7908 35.03C26.1074 35.4042 26.7119 35.3754 27.0285 35.0012ZM25.8484 41.3914C26.1938 40.9597 26.0786 40.2688 25.6181 39.981C25.1575 39.6643 24.3803 39.8083 24.1788 40.3552C24.1788 40.384 24.1788 40.4127 24.1788 40.4127C23.9773 40.7294 23.9485 41.1612 24.2652 41.4778C24.6682 41.8808 25.4454 41.852 25.8484 41.3914ZM24.4091 38.6569C24.697 38.4266 24.7257 38.0236 24.4379 37.7933C24.2364 37.6206 23.6607 37.563 23.6319 37.9085C23.5168 38.0812 23.488 38.2827 23.5743 38.4842C23.7183 38.8296 24.1213 38.8871 24.4091 38.6569Z" fill="#936037"/>
<path d="M57.3673 37.5631C57.7128 37.707 57.8567 38.1388 57.684 38.4554C57.5113 38.7432 57.1083 38.8584 56.8204 38.6857C56.4174 38.4554 56.4462 37.9373 56.7917 37.6494C56.9644 37.5343 57.1371 37.4767 57.3673 37.5631Z" fill="#F8BE66"/>
<path d="M55.4961 40.2108C55.8415 40.7577 55.6113 41.6212 55.0068 41.9091C54.3735 42.1969 53.5387 41.8803 53.3372 41.1895C53.1933 40.6425 53.4524 40.182 53.8266 39.8078C54.4023 39.5775 55.1507 39.6351 55.4961 40.2108Z" fill="#F8BE66"/>
<path d="M55.2087 20.5805C55.6404 23.4302 53.2513 26.7405 50.344 26.8556C47.5231 26.942 44.8173 25.6467 42.3418 24.4953C42.4282 24.3801 42.5145 24.2362 42.5721 24.0923C42.7448 23.7181 42.8311 23.0848 42.8024 22.5091C44.6446 22.9696 46.602 22.7969 48.473 22.6242C49.8259 22.4803 51.2651 22.25 52.3877 21.4153C53.9133 20.2351 53.7982 17.7308 51.9272 17.3854C51.8984 17.3566 51.8984 17.3278 51.8408 17.3278C47.9836 16.4067 45.0476 19.3427 42.6584 21.9334C42.6584 21.9046 42.6296 21.8758 42.6296 21.847C42.6872 21.847 42.7448 21.7895 42.7736 21.7319C43.925 19.4291 45.7384 17.3566 48.3003 16.6945C51.2651 15.8598 54.7193 17.3566 55.2087 20.5805Z" fill="#EE6A71"/>
<path d="M55.1798 37.3906C55.3525 37.5921 55.2373 37.8224 55.0358 37.9375C54.8343 38.0527 54.6041 37.9663 54.5177 37.7361C54.4601 37.5921 54.4889 37.4482 54.5465 37.3043C54.5465 37.3043 54.5753 37.3043 54.6041 37.3043C54.8056 37.2467 55.0071 37.1891 55.1798 37.3906Z" fill="#F8BE66"/>
<path d="M53.3948 44.673C54.4887 44.6154 55.5249 44.2412 56.446 43.6367C56.0431 46.7167 53.9705 49.4801 51.0633 50.5739C49.4513 51.1784 47.6379 51.2647 45.9108 51.3799C44.0397 51.495 42.1975 51.5526 40.3265 51.495C36.9011 51.4086 33.2742 51.1208 29.9927 50.0558C28.352 49.5088 26.8264 48.7316 25.5886 47.4939C24.466 46.3713 23.9479 45.1335 23.4873 43.7231C23.7176 43.9246 23.9766 44.0973 24.2645 44.27C25.0993 44.7305 26.0779 44.9032 26.9991 44.673C27.4308 44.5578 27.8338 44.3276 28.2368 44.1548C29.82 43.4928 30.6547 43.9246 31.7774 45.0184C33.4757 46.6591 35.3755 48.2423 37.8798 48.2999C38.8585 48.3287 39.8947 48.0984 40.7295 47.5802C41.9672 46.8031 42.6581 45.3926 43.8958 44.5866C46.947 42.7156 50.1709 44.9032 53.3948 44.673ZM54.6614 46.4289C54.7765 46.3425 54.6326 46.1698 54.5175 46.2274C54.4023 46.3137 54.172 46.4001 54.0569 46.2849C53.9705 46.1986 53.9705 46.0259 54.0857 45.9683C54.172 45.9395 54.1145 45.7668 54.0281 45.7956C53.769 45.8819 53.7115 46.1986 53.8554 46.4001C54.0281 46.6879 54.4599 46.6303 54.6614 46.4289ZM53.2797 48.3862C53.4812 48.3574 53.6251 48.1847 53.5963 47.9832C53.5963 47.8969 53.4524 47.8393 53.4236 47.9545C53.3948 48.0408 53.3661 48.1272 53.2797 48.1559C53.1933 48.1847 53.0782 48.1272 53.0494 48.0408C53.0206 47.9257 52.8479 47.9832 52.8767 48.0984C52.9343 48.2711 53.0782 48.3862 53.2797 48.3862ZM53.3085 47.6666C53.4236 47.4363 53.3085 47.1485 53.0494 47.0909C52.7904 47.0333 52.5313 47.2348 52.5025 47.5227C52.5025 47.6666 52.6752 47.6378 52.704 47.5227C52.7328 47.3788 52.8767 47.2924 52.9918 47.35C53.107 47.3788 53.1646 47.5227 53.1358 47.6378C53.1358 47.6954 53.2509 47.753 53.3085 47.6666ZM44.4427 45.479C44.5579 45.5077 44.673 45.335 44.5291 45.2775C44.1837 45.1335 43.8095 45.2775 43.608 45.5653C43.5504 45.6804 43.6943 45.7956 43.7807 45.7092C43.9246 45.4789 44.1837 45.4214 44.4427 45.479ZM44.0685 46.9182C44.2124 46.6879 44.1549 46.4001 43.9534 46.2561C43.7519 46.0834 43.4353 46.1122 43.2338 46.2561C43.1474 46.3425 43.2625 46.5152 43.3777 46.4289C43.6655 46.2274 44.011 46.5152 43.8958 46.8318C43.8382 46.947 44.011 47.0046 44.0685 46.9182ZM43.4353 46.9182C43.4928 46.8318 43.3489 46.6879 43.2625 46.7743C43.1762 46.8894 43.0323 46.947 42.8883 46.8894C42.7444 46.8031 42.7156 46.6303 42.7732 46.4864C42.802 46.4001 42.6581 46.3425 42.6293 46.4289C42.4854 46.6303 42.5717 46.947 42.7732 47.0909C43.0035 47.2348 43.2913 47.1485 43.4353 46.9182ZM30.626 48.0984C30.885 48.2135 31.288 48.0408 31.2592 47.6954C31.2592 47.5802 31.0577 47.5227 31.029 47.6666C31.0002 47.8105 30.8562 47.8969 30.7123 47.8393C30.5396 47.753 30.5396 47.4939 30.5972 47.35C30.6548 47.2348 30.5108 47.1773 30.4533 47.2636C30.2805 47.5227 30.3093 47.9545 30.626 48.0984ZM31.2304 49.3361C31.2592 49.1922 31.0865 49.1634 31.029 49.2786C30.9714 49.3937 30.885 49.4801 30.7699 49.5376C30.7123 49.5664 30.6548 49.5664 30.5972 49.5664C30.5684 49.5664 30.5684 49.5376 30.5396 49.5088C30.5684 49.4513 30.5396 49.3937 30.482 49.3937C30.3669 49.3937 30.3093 49.4801 30.3381 49.5664C30.3669 49.6815 30.4533 49.7679 30.5684 49.7967C30.885 49.8255 31.1729 49.624 31.2304 49.3361ZM30.4533 48.8468C30.5396 48.4726 30.1078 48.1847 29.7624 48.2999C29.5897 48.3574 29.5034 48.5014 29.5034 48.6741C29.5034 48.818 29.6185 48.9331 29.7624 48.9331C29.8488 48.9331 29.82 48.7892 29.7336 48.7892C29.6473 48.7892 29.6761 48.6453 29.7048 48.5877C29.7336 48.5014 29.8488 48.5014 29.9063 48.5014C30.0791 48.5302 30.223 48.6453 30.223 48.818C30.2518 48.9044 30.4245 48.9331 30.4533 48.8468ZM27.6899 46.0259C27.9778 45.6229 27.6035 45.0472 27.143 45.076C27.0279 45.076 27.0279 45.2775 27.143 45.2775C27.4596 45.2775 27.6899 45.6517 27.546 45.9395C27.4596 46.0259 27.6035 46.1122 27.6899 46.0259ZM27.0278 45.8244C27.0854 45.7668 26.9991 45.6517 26.9415 45.7092C26.6249 45.9107 26.1931 45.7668 26.1643 45.3638C26.1643 45.2487 25.9916 45.2487 25.9916 45.3638C25.9916 45.8819 26.6249 46.1986 27.0278 45.8244ZM25.3871 45.3638C25.4159 45.2487 25.272 45.1911 25.2144 45.2775C25.128 45.4502 24.9841 45.5653 24.8114 45.6229C24.6963 45.6517 24.7538 45.8244 24.869 45.7956C25.128 45.7956 25.3295 45.6229 25.3871 45.3638Z" fill="#CA9E67"/>
<path d="M53.136 19.314C53.136 20.1775 52.4164 20.8683 51.7543 21.2713C50.8908 21.7895 49.8833 21.9622 48.9046 22.1061C46.8609 22.3652 44.846 22.3939 42.8022 22.2788C42.8022 22.25 42.7734 22.2212 42.7734 22.1925C44.0975 21.0411 45.2777 19.573 46.7745 18.6519C48.3001 17.702 49.9697 17.5293 51.6968 17.5293C52.474 17.7884 53.136 18.4504 53.136 19.314Z" fill="#EE6A71"/>
<path d="M52.7047 28.8116C51.6397 29.3873 50.4595 29.7902 49.4808 30.5099C49.3945 30.5099 49.2793 30.625 49.3081 30.7401C49.6247 32.2657 50.2868 33.9065 50.9776 35.3169C46.4008 34.1943 43.0618 31.1144 41.1908 26.883C41.1908 26.3073 41.1332 25.7316 40.9893 25.1847C41.421 25.1559 41.824 24.9832 42.1407 24.6953C43.9541 25.9618 46.7462 27.1996 49.3081 27.3723C50.1141 28.3222 51.4958 28.5813 52.7047 28.8116Z" fill="#EE6A71"/>
<path d="M44.1837 34.0509C45.6229 33.4176 45.9971 35.8355 44.6155 35.9507C44.1261 35.9795 43.608 35.6053 43.5504 35.1159C43.4641 34.6266 43.7807 34.2812 44.1837 34.0509C44.1549 34.0509 44.1549 34.0509 44.1837 34.0509Z" fill="#F8BE66"/>
<path d="M44.0684 18.8239C43.4063 19.6011 42.8306 20.4934 42.3989 21.4145C42.2549 21.2706 42.0534 21.213 41.7944 21.213C41.7944 21.213 41.7944 21.213 41.7656 21.213C41.1611 20.9828 40.4415 20.8964 39.837 21.0691C39.837 21.0403 39.837 21.0403 39.8082 21.0116C39.4916 20.4071 39.1174 19.8602 38.7144 19.3132L38.7432 19.2845C38.8871 18.4785 39.031 17.6437 38.9159 16.809C38.8583 16.3772 38.7144 16.003 38.5417 15.6288C38.2538 15.0819 37.1312 14.1032 38.8871 14.2183C39.7794 14.2759 41.2475 15.6 41.8519 16.1181C42.7155 16.8953 43.579 17.7589 44.0684 18.8239Z" fill="#936037"/>
<path d="M42.8023 32.584C43.0038 32.8143 42.9174 33.1885 42.6871 33.3324C42.4568 33.4764 42.0826 33.3612 41.9675 33.1309C41.8524 32.9295 41.9099 32.6704 42.0539 32.4977C42.3129 32.4401 42.572 32.325 42.8023 32.584Z" fill="#F8BE66"/>
<path d="M41.9102 34.8275C41.9966 34.9714 41.9102 35.1729 41.7375 35.2304C41.5648 35.288 41.3633 35.1153 41.3633 34.9426C41.3633 34.885 41.3921 34.8275 41.4496 34.7699C41.4784 34.7699 41.5072 34.7987 41.536 34.7699C41.6799 34.7411 41.8238 34.7123 41.9102 34.8275Z" fill="#F8BE66"/>
<path d="M41.7657 21.6166C42.8307 21.7318 42.2262 24.0058 41.7945 24.4088C41.2763 24.8981 40.2401 24.8118 39.6644 24.4664C39.0311 24.0634 38.9735 22.8832 39.2038 22.2211C39.578 21.1561 40.6719 21.3864 41.5642 21.4727C41.6218 21.5303 41.6793 21.5879 41.7657 21.6166Z" fill="#EE6A71"/>
<path d="M40.7301 25.1857C40.6437 27.9202 40.3847 30.3958 38.7151 32.6985C37.2471 34.7423 35.2897 35.7497 33.0733 36.7572C33.0733 36.7284 33.0157 36.6996 32.9869 36.7284C33.2748 36.6421 33.3324 33.3894 33.2748 32.9864C33.2748 32.9576 33.246 32.9 33.2172 32.8712C33.2172 32.8137 33.2172 32.7561 33.1596 32.7273C32.6415 32.4107 32.0658 32.1516 31.5477 31.835C31.0871 31.5471 30.6266 31.2017 30.166 30.9139C32.037 30.1367 33.9081 28.6974 34.858 26.884C36.6138 26.6249 38.3121 25.9629 39.3484 24.7539C39.4635 24.8403 39.6075 24.9266 39.7802 24.9842C40.0968 25.0993 40.4422 25.1857 40.7301 25.1857Z" fill="#EE6A71"/>
<path d="M39.4057 21.2704C39.3482 21.328 39.2906 21.3856 39.233 21.4431C37.9665 19.5145 35.8364 18.1329 33.62 17.5572C32.5549 17.2693 31.1157 17.1254 30.0506 17.5859L29.8779 17.2405C31.0869 16.6648 32.4974 16.4633 33.879 16.7512C36.3545 17.2117 38.2543 19.0828 39.4057 21.2704Z" fill="#EE6A71"/>
<path d="M39.0892 21.5869C38.9741 21.7308 38.8877 21.9035 38.8302 22.105C38.8302 22.1338 38.8302 22.1626 38.8014 22.1913C38.7726 22.1626 38.7438 22.1338 38.6574 22.1338C36.9591 22.0474 35.2608 22.1913 33.5625 21.9035C32.2672 21.6732 29.0433 20.9248 29.1296 19.1689C30.2235 17.0388 33.0732 17.6721 34.9154 18.4205C36.6137 19.0826 37.909 20.234 39.0892 21.5869Z" fill="#EE6A71"/>
<path d="M38.6857 22.4518C38.7145 22.4518 38.7433 22.4517 38.7433 22.423C38.5994 23.1426 38.6857 23.9773 39.1463 24.5243C35.5482 27.8921 25.2432 26.9422 27.2293 20.2641C27.6611 18.8536 28.6398 17.8174 29.8776 17.2129L30.0503 17.5583C29.417 17.8174 28.9277 18.3067 28.7549 19.1127C28.7549 19.1415 28.7549 19.1991 28.7549 19.2278C28.5822 20.3792 30.2805 21.2716 31.2017 21.6458C33.4757 22.5957 36.2678 22.7108 38.6857 22.4518Z" fill="#EE6A71"/>
<path d="M28.5536 41.0464C28.8127 41.1903 28.7839 41.5069 28.5536 41.6509C28.1506 41.9675 27.834 41.4782 27.8915 41.104C27.9203 41.104 27.9203 41.104 27.9491 41.104C28.1794 41.0464 28.3233 40.9025 28.5536 41.0464Z" fill="#F8BE66"/>
<path d="M28.4094 36.9879C28.8987 37.5636 28.6685 38.2544 28.0064 38.5135C27.4883 38.715 26.8838 38.5422 26.6247 38.0529C26.452 37.7075 26.5096 37.3333 26.7111 37.0166C26.7687 37.0454 26.8262 37.0166 26.8838 36.9591C27.2868 36.3834 27.9776 36.4985 28.4094 36.9879Z" fill="#F8BE66"/>
<path d="M26.5967 33.9943C26.8558 34.1095 26.9421 34.4837 26.7694 34.7428C26.6255 34.973 26.2513 35.0018 26.0498 34.8291C25.8195 34.6276 25.8483 34.2534 26.0498 34.0519C26.0786 34.0231 26.1361 33.9943 26.1937 33.9943C26.3089 33.9368 26.4528 33.9368 26.5967 33.9943Z" fill="#F8BE66"/>
<path d="M25.359 40.2106C25.6757 40.3546 25.8484 40.8151 25.6469 41.1318C25.4454 41.4772 24.9273 41.5347 24.5818 41.362C24.294 41.1893 24.2076 40.8151 24.3228 40.5273H24.3516C24.6394 40.2682 24.9561 40.0091 25.359 40.2106Z" fill="#F8BE66"/>
<path d="M24.1781 38.0231C24.3508 38.1095 24.3796 38.311 24.2357 38.4261C24.0918 38.5413 23.8903 38.57 23.8039 38.3685C23.7463 38.2534 23.7463 38.1383 23.8039 38.0519C23.8615 38.0231 23.9191 37.9943 23.9766 37.9943C24.0342 37.9656 24.1206 37.9943 24.1781 38.0231Z" fill="#F8BE66"/>
<path d="M51.8119 26.7686C55.5252 30.3667 62.1457 35.8071 58.1446 41.5065C57.7128 42.111 57.1947 42.6579 56.5902 43.1185C56.6478 43.1472 56.6766 43.2048 56.6766 43.2912C56.5614 44.2986 56.3024 45.2485 55.8706 46.1409C55.5252 48.9042 54.0283 51.5812 53.2224 54.2582C52.2725 57.3958 51.668 60.5909 51.2938 63.8436C51.2938 63.8724 51.2938 63.8724 51.265 63.9012C51.2938 63.9875 51.265 64.0739 51.1499 64.1315C47.4366 65.8873 43.3204 66.7221 39.2329 66.6645C35.9226 66.607 31.4322 66.204 29.1006 63.527C29.043 63.4982 29.0142 63.4694 28.9855 63.4118C28.9855 63.4118 28.9855 63.4118 28.9855 63.383C28.9855 63.3543 28.9855 63.3543 28.9855 63.3255C28.1795 60.2743 27.7477 57.1367 26.8266 54.1143C25.9918 51.3797 24.7829 48.7891 23.8042 46.1121C23.2285 45.2198 22.8543 44.2411 22.8831 43.176C21.7029 41.9671 21.2135 40.1824 21.3575 38.4553C21.559 35.9222 23.027 33.7058 24.8116 32.0075C26.8842 30.0213 29.6475 28.8411 31.5185 26.6535C31.0868 26.5959 30.655 26.5096 30.2808 26.3944C27.575 25.646 25.7615 23.2569 26.3372 20.4359C26.9129 17.5575 29.5899 15.8304 32.4397 15.8879C34.7712 15.9167 36.7574 17.1257 38.1966 18.824C38.283 17.6438 38.3406 16.5212 37.7361 15.4274C37.5058 15.0244 36.815 14.4199 36.9013 13.873C36.9589 13.3261 37.6209 13.2973 38.0527 13.3549C39.2617 13.5276 40.5858 14.5638 41.5069 15.2834C42.5432 16.0894 43.5506 17.0105 44.0688 18.2195C45.3641 16.8378 47.0624 15.8591 49.0486 15.6864C51.8983 15.4274 54.748 17.1257 55.3525 20.033C55.8418 22.4221 54.1723 25.8475 51.8119 26.7686ZM58.087 40.5854C60.6201 36.0374 56.4751 31.8348 53.1072 28.6684C51.9558 29.4168 50.6605 29.8486 49.4228 30.4531C50.1136 31.8636 50.6317 33.5619 51.0059 35.0875V35.1163C51.1499 35.2026 51.0635 35.4329 50.862 35.4041C46.5443 34.6845 42.4856 31.4894 40.8736 27.3731C40.5282 31.7196 36.9301 36.2101 32.7275 36.8721C32.5836 36.9009 32.4684 36.7282 32.526 36.6131C32.4972 36.6131 32.4972 36.5843 32.4684 36.5843C32.1806 36.1525 32.4109 35.289 32.4684 34.7996C32.526 34.08 32.4972 33.3316 32.6699 32.6408C31.5761 32.2953 30.252 31.6621 29.4748 30.8273C29.4172 30.7697 29.4172 30.7122 29.4172 30.6546C29.3597 30.5682 29.3597 30.4531 29.446 30.3955C31.3458 29.4744 32.6699 28.2079 33.994 26.6247C33.2744 26.6823 32.5548 26.6823 31.864 26.6247C30.4823 28.8411 27.9492 29.935 25.9918 31.5469C23.6603 33.4755 21.6741 36.1525 21.7892 39.3189C21.8468 40.9596 22.5952 42.5716 24.0345 43.4351C25.5025 44.3274 26.6251 43.8093 28.0643 43.2624C29.8202 42.6003 30.8853 43.4639 32.0942 44.6728C34.0516 46.5727 37.0165 48.5012 39.7798 47.062C40.96 46.4575 41.5933 45.2773 42.5432 44.4138C43.1764 43.8669 43.9248 43.4351 44.702 43.2048C46.8897 42.5428 49.0773 43.4063 51.2362 43.7229C54.0859 44.1835 56.7053 43.0897 58.087 40.5854ZM50.056 26.5671C52.9633 26.4808 55.3525 23.1417 54.9207 20.292C54.4313 17.0681 50.9771 15.5713 48.0411 16.3197C45.4792 16.9818 43.637 19.0543 42.5144 21.3571C42.4856 21.4434 42.428 21.4722 42.3705 21.4722C42.3992 21.501 42.3992 21.5298 42.3992 21.5586C44.7884 18.9967 47.7244 16.0318 51.5816 16.953C51.6104 16.953 51.6392 16.9818 51.668 17.0105C53.539 17.356 53.6541 19.8602 52.1285 21.0404C51.0347 21.904 49.5667 22.1055 48.2138 22.2494C46.3428 22.4509 44.3854 22.6236 42.5432 22.1343C42.6007 22.71 42.4856 23.372 42.3129 23.7174C42.2553 23.8613 42.169 24.0053 42.0826 24.1204C44.5293 25.3582 47.2351 26.6535 50.056 26.5671ZM56.1584 43.3775C55.2373 43.9532 54.2011 44.3274 53.1072 44.4138C49.8833 44.6153 46.6594 42.4276 43.6082 44.385C42.3705 45.191 41.6796 46.6014 40.4419 47.3786C39.6071 47.8968 38.5996 48.127 37.5922 48.0983C35.0879 48.0407 33.1881 46.4575 31.4897 44.8168C30.3671 43.7229 29.5036 43.2624 27.9492 43.9532C27.5462 44.1259 27.1432 44.3562 26.7115 44.4714C25.7616 44.7016 24.8116 44.5289 23.9769 44.0684C23.689 43.9244 23.43 43.7229 23.1997 43.5215C23.6603 44.9319 24.1784 46.1697 25.301 47.2923C26.51 48.5012 28.0643 49.3072 29.7051 49.8541C32.9866 50.9192 36.6135 51.207 40.0389 51.2934C41.9099 51.3509 43.7809 51.2934 45.6231 51.1782C47.3502 51.0631 49.1637 50.9767 50.7757 50.3723C53.6829 49.2209 55.7554 46.4287 56.1584 43.3775ZM55.1222 47.4074C54.345 48.5876 53.2799 49.5663 52.0422 50.2859C52.0422 50.3147 52.0422 50.3723 52.0134 50.4298C49.7106 55.0354 48.5592 59.6986 48.0987 64.7935C49.0198 64.5057 49.9121 64.1602 50.8044 63.786C51.4089 58.0291 53.2224 52.7614 55.1222 47.4074ZM51.4665 20.9829C52.1285 20.5799 52.8482 19.889 52.8482 19.0255C52.8482 18.1619 52.1861 17.4999 51.4089 17.2408C49.653 17.2408 48.0123 17.4135 46.4867 18.3634C44.9899 19.2845 43.8097 20.7238 42.4856 21.904C42.4856 21.9328 42.5144 21.9615 42.5144 21.9903C44.5581 22.1055 46.5731 22.0767 48.6168 21.8176C49.5955 21.6737 50.6029 21.501 51.4665 20.9829ZM52.474 28.064C52.1285 27.7185 51.7831 27.4019 51.4377 27.0853C51.3801 27.0277 51.3513 26.9413 51.3801 26.8838C50.862 27.0277 50.2863 27.0853 49.7106 27.114C50.4878 27.6897 51.4953 27.8912 52.474 28.064ZM49.2213 30.2516C50.2 29.5032 51.3801 29.129 52.4452 28.5533C51.2362 28.2942 49.8545 28.064 49.0486 27.0853C46.4867 26.9126 43.6946 25.6748 41.8811 24.4083C41.5645 24.6961 41.1615 24.84 40.7297 24.8976C40.8736 25.4445 40.9312 26.0202 40.9312 26.5959C42.8022 30.8561 46.1413 33.9073 50.7181 35.0299C50.056 33.6194 49.394 31.9787 49.0486 30.4531C49.0198 30.338 49.1061 30.2516 49.2213 30.2516ZM51.4953 50.545C50.1424 51.1495 48.7031 51.351 47.2063 51.4949C46.8321 51.5237 46.4291 51.5524 46.0549 51.5812C44.9035 56.2732 44.6157 60.9075 44.3566 65.6858C45.5368 65.4556 46.717 65.1677 47.8684 64.8223C47.782 59.9289 49.1637 54.8627 51.4953 50.545ZM44.1551 65.7722C43.7233 61.109 44.4718 56.158 45.6231 51.6676C43.8961 51.7827 42.1402 51.8115 40.3843 51.7539C40.2116 56.561 40.2404 61.3681 40.1252 66.1752C41.4781 66.1176 42.831 65.9737 44.1551 65.7722ZM43.7809 18.5361C43.3204 17.4423 42.428 16.6075 41.5357 15.8591C40.9312 15.341 39.4632 14.0457 38.5708 13.9593C36.815 13.8154 37.9664 14.7941 38.2254 15.3698C38.3981 15.744 38.5421 16.1182 38.5996 16.55C38.7148 17.356 38.5708 18.2195 38.4269 19.0255C38.4269 19.0543 38.4269 19.0543 38.3981 19.0543C38.8299 19.5724 39.1753 20.1481 39.492 20.7526C39.492 20.7814 39.492 20.7814 39.492 20.8101C40.0964 20.6087 40.8161 20.7238 41.4206 20.9541C41.4206 20.9541 41.4206 20.9541 41.4493 20.9541C41.7084 20.9541 41.9099 21.0116 42.0538 21.1556C42.5432 20.2057 43.1189 19.3133 43.7809 18.5361ZM41.5357 24.0916C41.9675 23.6886 42.5432 21.4146 41.5069 21.2995C41.4205 21.2995 41.363 21.2419 41.3342 21.1556C40.4706 21.0692 39.3768 20.8389 38.9738 21.904C38.7436 22.566 38.8011 23.7462 39.4344 24.1492C39.9813 24.5234 41.0176 24.581 41.5357 24.0916ZM38.4557 32.4105C40.0964 30.1077 40.3843 27.6322 40.4706 24.8976C40.154 24.8976 39.8374 24.84 39.5207 24.6961C39.348 24.6385 39.2329 24.5522 39.089 24.4658C38.0527 25.6748 36.3544 26.3656 34.5985 26.5959C33.6486 28.4094 31.8064 29.8486 29.9066 30.6258C30.3959 30.8849 30.8277 31.2591 31.2883 31.5469C31.8064 31.8636 32.3821 32.1514 32.9002 32.4393C32.9578 32.468 32.9578 32.5256 32.9578 32.5832C32.9866 32.612 33.0154 32.6408 33.0154 32.6983C33.0729 33.1013 33.0154 36.354 32.7275 36.4404C32.7563 36.4404 32.7851 36.4691 32.8139 36.4691C35.0303 35.4617 36.9877 34.4542 38.4557 32.4105ZM39.7222 66.1464C39.7798 66.1464 39.8662 66.1464 39.9237 66.1464C39.6071 61.3681 39.751 56.5035 39.9813 51.7252C37.88 51.6388 35.6348 51.5237 33.4759 51.1782C35.4333 55.7263 36.4695 60.9939 36.2105 65.9449C37.3907 66.0888 38.5708 66.1464 39.7222 66.1464ZM39.1465 21.0116C39.1178 20.9829 39.1178 20.9829 39.1465 21.0116C37.9664 18.824 36.0953 16.953 33.591 16.4348C32.2382 16.1758 30.7989 16.3485 29.5899 16.9242C28.3522 17.5287 27.3735 18.5649 26.9417 19.9754C24.9268 26.6247 35.2318 27.6034 38.8587 24.2355C38.3981 23.6886 38.3118 22.8827 38.4557 22.1343C38.4269 22.1343 38.4269 22.1343 38.3981 22.163C35.9802 22.4509 33.2168 22.307 30.9428 21.3858C30.0217 21.0116 28.3234 20.1193 28.4961 18.9679C28.4673 18.9391 28.4673 18.9103 28.4961 18.8528C28.6976 18.0468 29.187 17.5862 29.7914 17.2984C30.8565 16.8378 32.3245 17.0105 33.3608 17.2696C35.5772 17.8453 37.7073 19.1982 38.9738 21.1556C39.0026 21.098 39.0602 21.0404 39.1465 21.0116ZM38.5421 21.8176C38.5996 21.6161 38.686 21.4434 38.8011 21.2995C37.5922 19.9466 36.2968 18.7952 34.6273 18.1044C32.7851 17.356 29.9354 16.7227 28.8415 18.8528C28.784 20.6087 31.9791 21.3858 33.2744 21.5873C34.9727 21.8752 36.671 21.7313 38.3693 21.8176C38.4269 21.8176 38.4845 21.8464 38.5133 21.8752C38.5133 21.8752 38.5421 21.8464 38.5421 21.8176ZM35.9226 65.8873C35.7499 60.6773 34.8576 55.9278 32.9866 51.0631C31.6337 50.8328 30.2808 50.4874 29.0142 49.9981C30.8565 54.8339 32.2957 59.9576 32.7851 65.1389C33.8213 65.5131 34.8576 65.7434 35.9226 65.8873ZM32.4684 65.0238C31.5761 59.8425 30.3959 54.8051 28.5249 49.8829C28.5249 49.8541 28.5249 49.8254 28.5249 49.8254C28.4961 49.8254 28.4961 49.8254 28.4961 49.7966C27.3159 49.2784 25.9918 48.4725 24.9556 47.4362C25.9055 49.5375 26.6251 51.8403 27.2872 53.9704C28.2083 56.9352 29.187 60.1879 29.3885 63.2967C30.3096 64.0451 31.3746 64.6208 32.4684 65.0238Z" fill="#252A34"/>
<path d="M57.4542 37.044C57.9147 37.3895 58.0299 38.1091 57.6269 38.5409C57.1951 38.9726 56.4755 38.9726 56.1013 38.4833C55.871 38.1954 55.871 37.7924 56.0725 37.5046C56.0437 37.4758 56.0149 37.4182 56.0437 37.3895C56.1876 36.8138 57.0512 36.7562 57.4542 37.044ZM57.3966 38.1667C57.5693 37.85 57.4254 37.3895 57.08 37.2743C56.8497 37.188 56.677 37.2743 56.5043 37.3607C56.1876 37.6485 56.1301 38.1667 56.5331 38.3969C56.8497 38.5696 57.2239 38.4545 57.3966 38.1667Z" fill="#252A34"/>
<path d="M55.5829 39.7221C56.0435 40.4705 55.7556 41.5931 54.9496 41.9961C54.1437 42.3991 53.0498 41.9961 52.7332 41.1614C52.5317 40.6432 52.6756 39.8948 53.1074 39.4918C53.1074 39.4343 53.1074 39.3767 53.165 39.3479C53.8558 38.7434 55.0648 38.9161 55.5829 39.7221ZM54.7194 41.6507C55.3238 41.3628 55.5541 40.4993 55.2087 39.9524C54.8633 39.3479 54.1149 39.2903 53.5392 39.5494C53.165 39.9236 52.9059 40.3842 53.0498 40.9311C53.2513 41.5931 54.1149 41.9385 54.7194 41.6507Z" fill="#252A34"/>
<path d="M55.2084 36.9296C55.4675 37.3038 55.2948 37.7644 54.9206 37.9371C54.5464 38.1386 54.0858 37.9946 53.9131 37.5917C53.8268 37.3326 53.8843 36.9872 54.1146 36.8145L54.1434 36.7857C54.4312 36.4403 55.0069 36.6417 55.2084 36.9296ZM54.7479 37.6492C54.9494 37.5341 55.0645 37.3038 54.8918 37.1023C54.7191 36.9008 54.5176 36.9584 54.3161 37.016C54.2873 37.016 54.2873 37.016 54.2585 37.016C54.201 37.1599 54.1722 37.3038 54.2298 37.4477C54.3161 37.678 54.5464 37.7356 54.7479 37.6492Z" fill="#252A34"/>
<path d="M54.2299 45.94C54.345 45.8536 54.4889 46.0551 54.3738 46.1415C54.1435 46.3429 53.7405 46.4293 53.539 46.1415C53.3951 45.94 53.4527 45.6233 53.7117 45.537C53.7981 45.5082 53.8556 45.6521 53.7693 45.7097C53.6542 45.7672 53.6542 45.94 53.7405 46.0263C53.8844 46.1127 54.1147 45.9975 54.2299 45.94Z" fill="#252A34"/>
<path d="M53.3376 47.6948C53.3664 47.8963 53.1936 48.069 53.0209 48.0978C52.8194 48.1266 52.6467 47.9827 52.5892 47.81C52.5604 47.6948 52.7331 47.666 52.7619 47.7524C52.7907 47.8387 52.9058 47.8963 52.9922 47.8675C53.0785 47.8387 53.1073 47.7524 53.1361 47.666C53.1649 47.5509 53.3088 47.6085 53.3376 47.6948Z" fill="#252A34"/>
<path d="M52.7334 46.8036C52.9925 46.8612 53.1076 47.149 52.9925 47.3793C52.9349 47.4945 52.8198 47.4081 52.8198 47.3218C52.8486 47.2066 52.7622 47.0915 52.6759 47.0339C52.5607 46.9763 52.388 47.0915 52.388 47.2066C52.3592 47.3218 52.1865 47.3505 52.1865 47.2066C52.2153 46.9476 52.4744 46.7173 52.7334 46.8036Z" fill="#252A34"/>
<path d="M51.438 27.0858C51.7547 27.4024 52.1001 27.719 52.4743 28.0644C51.5244 27.8629 50.4881 27.6902 49.7109 27.0858C50.2866 27.0858 50.8623 26.9994 51.3805 26.8555C51.3517 26.9418 51.3805 27.0282 51.438 27.0858Z" fill="#936037"/>
<path d="M45.6523 34.3685C45.7962 35.1457 45.2493 35.9517 44.4721 36.0956C43.7237 36.2396 42.8889 35.6351 42.8026 34.8579C42.7738 34.3397 43.0904 33.7641 43.5798 33.5626C43.5798 33.505 43.6086 33.4474 43.6661 33.4186C44.4721 32.9005 45.5084 33.4762 45.6523 34.3685ZM44.2994 35.6639C45.6811 35.5487 45.3069 33.1308 43.8676 33.764C43.8676 33.764 43.8676 33.764 43.8388 33.764C43.4646 33.9943 43.148 34.3397 43.2056 34.8003C43.2919 35.3184 43.8101 35.6926 44.2994 35.6639Z" fill="#252A34"/>
<path d="M44.242 44.9899C44.3571 45.0475 44.2707 45.2202 44.1556 45.1914C43.8965 45.1338 43.6375 45.1914 43.4935 45.4217C43.4072 45.508 43.2633 45.3929 43.3208 45.2777C43.5223 44.9611 43.8965 44.8172 44.242 44.9899Z" fill="#252A34"/>
<path d="M43.6658 45.9687C43.8673 46.1414 43.8961 46.4292 43.7809 46.6307C43.7234 46.7171 43.5794 46.6595 43.6082 46.5444C43.7234 46.2277 43.3779 45.9111 43.0901 46.1414C42.975 46.1989 42.8598 46.0262 42.9462 45.9687C43.1477 45.7959 43.4643 45.7672 43.6658 45.9687Z" fill="#252A34"/>
<path d="M42.9754 46.4858C43.0618 46.3994 43.2057 46.5146 43.1481 46.6297C43.0042 46.86 42.7163 46.9464 42.4861 46.8024C42.2558 46.6585 42.1982 46.3707 42.3421 46.1404C42.3997 46.054 42.5436 46.1116 42.4861 46.1979C42.4285 46.3419 42.4573 46.5146 42.6012 46.6009C42.7451 46.6585 42.8891 46.6009 42.9754 46.4858Z" fill="#252A34"/>
<path d="M42.8603 32.0644C43.1769 32.4673 43.0618 33.1006 42.63 33.3885C42.1983 33.6475 41.565 33.5036 41.3347 33.043C41.162 32.6976 41.2484 32.2371 41.5362 32.0068C41.5362 32.0068 41.5362 31.978 41.565 31.978C41.8528 31.5462 42.5725 31.6902 42.8603 32.0644ZM42.3998 33.043C42.6588 32.8991 42.7164 32.4961 42.5149 32.2946C42.2846 32.0356 42.0255 32.1507 41.7377 32.2083C41.6226 32.381 41.5362 32.6401 41.6513 32.8416C41.7953 33.1006 42.1407 33.187 42.3998 33.043Z" fill="#252A34"/>
<path d="M41.9675 34.339C42.1978 34.6844 41.9963 35.2025 41.5933 35.3464C41.1616 35.4904 40.701 35.1162 40.7298 34.6844C40.7298 34.4829 40.8449 34.339 41.0176 34.2238C41.0752 34.1951 41.1328 34.1663 41.1904 34.1663C41.3631 33.9648 41.7948 34.1087 41.9675 34.339ZM41.4494 34.9435C41.5933 34.8859 41.7085 34.6844 41.6221 34.5405C41.5358 34.4253 41.3919 34.4541 41.2767 34.4829C41.2479 34.4829 41.2191 34.4829 41.1904 34.4829C41.1328 34.5405 41.1328 34.598 41.104 34.6556C41.0752 34.8283 41.2767 35.001 41.4494 34.9435Z" fill="#252A34"/>
<path d="M31.0008 47.407C31.0296 47.7236 30.6266 47.9251 30.3676 47.81C30.0509 47.6661 30.0222 47.2343 30.1949 46.9752C30.2524 46.8889 30.3964 46.9752 30.3388 47.0616C30.2812 47.2055 30.2812 47.4933 30.4539 47.5509C30.5979 47.6085 30.7418 47.5221 30.7706 47.3782C30.7994 47.2343 30.9721 47.2919 31.0008 47.407Z" fill="#252A34"/>
<path d="M30.2806 49.1919C30.3094 49.2207 30.3094 49.2207 30.3382 49.2495C30.3958 49.2495 30.4533 49.2495 30.5109 49.2207C30.626 49.192 30.7412 49.0768 30.77 48.9617C30.8275 48.8465 31.0003 48.8753 30.9715 49.0192C30.9139 49.3071 30.626 49.5086 30.3382 49.451C30.2231 49.4222 30.1367 49.3359 30.1079 49.2207C30.0791 49.1344 30.1367 49.0192 30.2518 49.048C30.2806 49.0768 30.3094 49.1344 30.2806 49.1919C30.2806 49.1632 30.2518 49.1919 30.2806 49.1919Z" fill="#252A34"/>
<path d="M29.475 48.012C29.7916 47.8969 30.2522 48.1847 30.1658 48.5589C30.137 48.6741 29.9643 48.6453 29.9643 48.5301C29.9643 48.3574 29.8204 48.2135 29.6477 48.2135C29.5613 48.2135 29.475 48.2423 29.4462 48.2999C29.4174 48.3574 29.3886 48.5014 29.475 48.5014C29.5326 48.5014 29.5613 48.6165 29.5038 48.6453C29.3599 48.6741 29.2447 48.5589 29.2447 48.3862C29.2159 48.1847 29.3023 48.0696 29.475 48.012Z" fill="#252A34"/>
<path d="M28.5825 40.5859C28.9279 40.9313 28.784 41.507 28.3522 41.7373C27.8917 41.9964 27.4023 41.7085 27.2872 41.2192C27.1721 40.7874 27.4599 40.3556 27.8917 40.3844C28.1508 40.3556 28.4386 40.442 28.5825 40.5859ZM28.2659 41.3631C28.4674 41.1904 28.4962 40.8738 28.2659 40.7586C28.0356 40.6147 27.8917 40.7586 27.6902 40.845C27.6614 40.845 27.6614 40.845 27.6326 40.845C27.5463 41.1904 27.8629 41.7085 28.2659 41.3631Z" fill="#252A34"/>
<path d="M26.4234 36.3246C27.3446 35.0005 29.964 37.1306 28.2081 38.3972C27.5173 38.8865 26.5386 38.7714 26.078 38.0517C25.675 37.476 25.8477 36.6701 26.4234 36.3246ZM27.7188 38.2244C28.3808 37.9654 28.6111 37.2745 28.1218 36.6988C27.69 36.2095 26.9991 36.0944 26.5674 36.6701C26.5098 36.7276 26.4522 36.7276 26.3947 36.7276C26.1932 37.0443 26.1356 37.4185 26.3083 37.7639C26.5962 38.2532 27.2006 38.4259 27.7188 38.2244Z" fill="#252A34"/>
<path d="M26.8266 44.7881C27.2871 44.7594 27.6614 45.3351 27.3735 45.738C27.3159 45.8244 27.1432 45.7381 27.2296 45.6517C27.3735 45.3638 27.1432 44.9609 26.8266 44.9896C26.7114 44.9609 26.7114 44.7881 26.8266 44.7881Z" fill="#252A34"/>
<path d="M26.5671 33.5036C26.9413 33.7626 27.0277 34.3671 26.7398 34.7413C26.4232 35.1155 25.8187 35.1443 25.5021 34.7701C25.2718 34.511 25.243 34.1368 25.4157 33.8778C25.3869 33.849 25.3869 33.8202 25.3869 33.7626C25.4445 33.5323 25.7036 33.4172 25.9338 33.3596C26.1353 33.3309 26.3656 33.3596 26.5671 33.5036ZM26.4808 34.4535C26.6535 34.2232 26.5671 33.849 26.308 33.7051C26.1929 33.6475 26.0202 33.6475 25.9051 33.6763C25.8475 33.6763 25.8187 33.7051 25.7611 33.7338C25.5884 33.9353 25.5596 34.3095 25.7611 34.511C25.9626 34.7125 26.308 34.6837 26.4808 34.4535Z" fill="#252A34"/>
<path d="M26.654 45.3927C26.7404 45.3351 26.8267 45.4503 26.7404 45.5079C26.3374 45.8821 25.7041 45.5942 25.7041 45.0473C25.7041 44.9322 25.8768 44.9322 25.8768 45.0473C25.9056 45.4791 26.3374 45.623 26.654 45.3927Z" fill="#252A34"/>
<path d="M25.33 39.693C25.7906 40.0097 25.9057 40.6717 25.5603 41.1035C25.1861 41.564 24.3801 41.6216 23.9771 41.1898C23.6893 40.8732 23.6893 40.4702 23.8908 40.1248C23.8908 40.096 23.8908 40.0672 23.8908 40.0672C24.0923 39.5203 24.8695 39.3764 25.33 39.693ZM25.3588 40.8156C25.5603 40.499 25.3876 40.0672 25.071 39.8945C24.6968 39.7218 24.3513 39.9521 24.0635 40.1824H24.0347C23.9196 40.4702 24.0059 40.8444 24.2938 41.0171C24.6392 41.2474 25.1285 41.1611 25.3588 40.8156Z" fill="#252A34"/>
<path d="M24.9272 45.0181C24.9847 44.9318 25.1286 44.9894 25.0999 45.1045C25.0423 45.3348 24.812 45.5075 24.5529 45.5651C24.4378 45.5938 24.3802 45.4211 24.4954 45.3923C24.7257 45.306 24.8408 45.1909 24.9272 45.0181Z" fill="#252A34"/>
<path d="M24.1501 37.5338C24.4379 37.7641 24.4092 38.1671 24.1213 38.3974C23.8335 38.5989 23.4305 38.5701 23.2865 38.2247C23.2002 38.0232 23.229 37.8217 23.3441 37.649C23.3729 37.3035 23.9486 37.3611 24.1501 37.5338ZM23.9486 38.1383C24.0925 38.0232 24.0637 37.8217 23.891 37.7353C23.8335 37.7065 23.7471 37.6777 23.6607 37.6777C23.6032 37.6777 23.5456 37.7353 23.488 37.7353C23.4592 37.8505 23.4592 37.9656 23.488 38.0519C23.5744 38.2534 23.8047 38.2534 23.9486 38.1383Z" fill="#252A34"/>
</svg>
