<svg width="100" height="100" viewBox="0 0 100 100" fill="none" xmlns="http://www.w3.org/2000/svg">
<circle cx="50" cy="50" r="50" fill="white"/>
<circle cx="50" cy="50" r="49.75" stroke="#FF2E63" stroke-opacity="0.2" stroke-width="0.5"/>
<circle cx="50" cy="50" r="43.75" fill="white"/>
<circle cx="50" cy="50" r="43.5" stroke="#FF2E63" stroke-opacity="0.2" stroke-width="0.5"/>
<path d="M71.9198 39.9739C70.6864 41.172 69.5588 43.1454 69.2416 44.9779C68.3254 40.2206 64.6605 36.0975 59.9736 34.7937C60.7841 34.2299 61.1013 33.2079 61.0661 32.2212C61.4184 32.3269 61.7708 32.3622 62.1232 32.3269C62.3699 32.2917 62.9337 32.2212 63.1804 32.0098C63.1804 34.7584 66.5634 35.1461 68.6425 34.688C68.4311 36.8728 69.7702 39.41 71.9198 39.9739Z" fill="#66C7C2"/>
<path d="M70.1571 55.3725C71.7076 57.0993 68.9589 58.6498 67.796 59.0727C66.8446 59.4251 65.8226 59.5308 64.8359 59.566C62.8977 59.6365 60.9596 59.2489 59.0214 59.1432C54.8632 58.9317 50.7754 59.9184 46.6171 59.7422C39.2873 59.3898 27.6231 56.0773 29.8784 46.4922C30.0193 47.056 30.1955 47.6199 30.4422 48.1484C32.8737 53.1877 39.2873 53.2934 44.0446 52.9058C47.4629 52.6239 50.9516 52.2715 54.2288 53.4696C57.1185 54.5268 59.6557 56.4297 62.6863 57.1697C64.8712 57.7336 67.3379 57.6983 69.2056 56.2888C69.5932 56.0421 69.9104 55.7249 70.1571 55.3725Z" fill="#FAD399"/>
<path d="M70.1218 51.4966C71.5666 54.8092 67.9722 56.9235 65.1882 56.8883C62.7215 56.853 60.4662 55.7606 58.2813 54.6682C56.5898 53.8225 54.8631 52.9062 52.9954 52.4834C51.022 52.0252 48.9429 52.0252 46.9342 52.131C42.6702 52.4129 38.0539 53.2939 34.1071 51.109C32.1689 50.0166 30.7593 48.2546 30.3717 46.0345C30.0193 43.9906 30.8298 39.0924 33.8604 39.6562C33.7899 40.22 33.7899 40.7839 33.8956 41.3829C34.8471 47.2327 41.5073 46.8803 45.9827 47.4441C49.4714 47.9022 52.3258 49.9109 55.4974 51.2852C58.0699 52.4129 60.8538 53.1881 63.6729 53.2234C65.6816 53.2586 68.6417 53.0472 70.0865 51.4262C70.0865 51.4614 70.0865 51.4614 70.1218 51.4966Z" fill="#FDE9CC"/>
<path d="M69.7342 48.5368C71.2847 49.8406 69.1704 51.6026 67.9722 52.0255C66.915 52.4131 65.7521 52.5893 64.5892 52.6598C62.3691 52.7655 60.1138 52.3426 57.9994 51.6378C54.1231 50.3692 50.7401 47.6205 46.6876 46.9862C42.9874 46.3872 38.0892 47.1272 35.4814 43.7794C32.3804 39.7974 35.8691 34.6524 40.4854 34.8286C39.0406 36.1677 38.6882 38.6345 39.4987 40.5727C41.014 44.2728 45.5247 45.2947 49.0839 45.5414C51.8678 45.7176 54.5812 45.7176 57.2947 46.3519C59.7967 46.951 62.0167 48.2196 64.413 49.0654C65.8931 49.5587 67.796 50.0168 69.2056 49.0301C69.417 48.8892 69.5932 48.713 69.7342 48.5368Z" fill="#FAD399"/>
<path d="M69.382 58.8972C69.5229 58.7915 69.6639 58.6858 69.8048 58.5801C68.5714 61.5754 67.6552 64.7117 66.7742 67.8481C65.8228 71.231 64.8008 74.7197 64.237 78.2084C63.6027 78.5256 62.9331 78.8428 62.2988 79.0894C64.1313 72.9578 65.7171 66.7909 67.3381 60.5887C68.1133 60.1306 68.8181 59.5668 69.382 58.8972Z" fill="#99D9D7"/>
<path d="M69.5234 46.1394C70.3691 47.7957 68.6072 48.9586 67.1271 48.9938C66.2814 48.9938 65.4356 48.7472 64.6251 48.4653C63.1451 47.9719 61.806 47.1966 60.3611 46.6328C57.401 45.5404 54.4057 45.188 51.2694 45.0823C47.9569 44.9765 44.2215 44.8708 41.5433 42.545C38.9003 40.2192 38.5832 34.8981 42.8471 34.2285C42.7062 34.6514 42.6357 35.1095 42.5652 35.5676C42.2481 38.4925 44.151 40.9592 46.7235 42.1926C50.5293 44.0251 54.6524 42.5803 58.4935 43.8489C60.8193 44.6241 64.3784 47.2319 66.5633 44.8003C66.5633 44.8003 66.5633 44.7651 66.5985 44.7651C67.55 45.0823 68.3957 45.6461 69.0653 46.668C69.0653 46.7385 69.1005 46.809 69.1005 46.8795C69.1358 47.0909 69.4529 47.0204 69.4529 46.8442C69.4882 46.809 69.4882 46.7738 69.4882 46.7033C69.4882 46.668 69.4529 46.6328 69.4529 46.6328C69.4529 46.5623 69.4529 46.5271 69.4529 46.4566C69.4529 46.2804 69.4882 46.2099 69.5234 46.1394Z" fill="#FDE9CC"/>
<path d="M59.7266 35.0039C64.6249 36.9068 67.7965 40.5717 68.8889 45.611C67.6203 44.0604 65.2945 43.5319 63.321 43.6728C63.4268 43.4966 63.5325 43.2499 63.5325 43.2147C63.603 42.9328 63.6382 42.6509 63.603 42.369C63.5677 41.8756 63.3563 41.3822 63.0391 41.0299C62.5105 40.4308 61.3476 40.0079 60.5371 40.3955C60.5724 40.1841 60.5371 39.9374 60.4314 39.7612C60.3609 39.585 60.1495 39.3031 59.9381 39.1974C60.6076 38.0345 60.819 36.5897 60.079 35.4973C59.9733 35.2858 59.8323 35.1449 59.7266 35.0039C59.6914 35.0039 59.6914 35.0039 59.7266 35.0039Z" fill="#66C7C2"/>
<path d="M64.3073 60.0962C65.435 60.0962 66.5979 59.9905 67.7255 59.6381C65.153 61.4 61.7701 62.1401 58.8099 62.7744C57.7175 63.0211 56.6251 63.1973 55.5327 63.3734C55.4974 63.3734 55.4622 63.3734 55.427 63.3734C52.5726 63.7963 49.6829 63.9725 46.7933 63.8668C42.9522 63.7258 39.0406 63.0563 35.4109 61.682C33.2261 60.8714 31.2879 59.6028 30.4774 57.3123C29.9136 55.7265 29.9841 54.0702 30.0193 52.4492C30.7593 53.9293 31.8518 55.2331 33.1204 56.2198C36.9967 59.2152 42.4941 60.0962 47.2866 60.2371C50.1763 60.3076 52.9954 59.8847 55.8851 59.6733C58.7042 59.5324 61.4529 60.0962 64.3073 60.0962Z" fill="#FDE9CC"/>
<path d="M66.1053 44.519C63.8148 46.4924 59.9737 43.3913 57.5774 42.898C54.723 42.3341 51.7629 43.0037 48.9085 42.2989C45.9836 41.5589 43.094 39.3388 43.1292 36.0615C43.1997 32.6433 45.9836 30.3527 48.2389 28.2031C48.3094 28.485 48.3799 28.767 48.5561 28.9784C48.6266 29.0489 48.6971 29.0489 48.7675 29.0136C49.2609 28.8727 49.6838 28.9079 50.1066 29.0841C47.6399 29.6479 45.7369 32.7138 46.0893 35.1805C46.5827 38.5988 50.2124 38.5988 52.8906 39.1274C52.9963 39.3388 53.102 39.5502 53.2077 39.7264C54.4058 41.4179 56.8726 41.8408 58.5993 40.7484C59.0222 40.4665 59.4451 40.0788 59.7622 39.5855C59.7975 39.6207 59.8327 39.6207 59.868 39.6559C59.9737 39.7264 60.0794 39.8321 60.1499 39.9379C60.2908 40.1493 60.3261 40.3607 60.2908 40.6426V40.6779C60.2908 40.7131 60.2908 40.7131 60.2908 40.7484C60.3261 40.8188 60.3966 40.8541 60.467 40.8541C60.9251 40.8188 61.3128 40.6779 61.8061 40.7836C62.2995 40.9246 62.7224 41.2065 63.0043 41.6646C63.2509 42.0875 63.3567 42.6513 63.2509 43.1446C63.2157 43.3208 63.0747 43.5323 63.0747 43.7085H63.0395C62.7928 43.7437 62.7928 44.0961 63.0395 44.0961C64.0615 44.2018 65.1186 44.2723 66.1053 44.519Z" fill="#FAD399"/>
<path d="M63.25 23.623C63.25 23.7288 63.2501 23.7992 63.2148 23.905C63.1091 24.2574 62.3338 24.9269 62.0871 25.2793C60.889 27.2175 60.6423 29.5433 61.2414 31.7281C61.1709 31.6929 61.0652 31.6929 60.9947 31.6576C60.8538 31.0233 60.6071 30.4243 60.1842 30.0014C59.8671 29.649 59.4794 29.4023 59.0918 29.2261C59.1975 29.2966 59.3737 29.2614 59.4089 29.1204C59.5499 28.0632 59.9023 27.006 60.4661 26.0898C60.9595 25.2793 62.1929 23.623 63.25 23.623Z" fill="#FDE9CC"/>
<path d="M62.6864 62.4567C64.0608 62.0691 65.4703 61.611 66.7037 60.9414C65.0827 67.0026 63.4265 73.0638 62.0169 79.1602C60.7835 79.6535 59.4796 80.0412 58.1758 80.3231C59.7616 74.4381 61.3121 68.4826 62.6512 62.5272C62.7217 62.5272 62.7217 62.4919 62.6864 62.4567Z" fill="#66C7C2"/>
<path d="M62.8982 23.1282C60.3962 22.952 57.718 23.9035 55.7798 25.4187C55.6741 25.2426 55.6036 25.0664 55.5684 24.8902C55.6036 24.8902 55.6036 24.8902 55.6388 24.8549C56.3084 23.4101 59.4095 22.7406 60.7838 22.7406C61.2067 22.7053 62.2991 22.7758 62.8982 23.1282Z" fill="#FDE9CC"/>
<path d="M62.4752 23.4453C61.6999 23.7272 60.9246 24.6435 60.5723 25.1016C59.656 26.2292 59.1274 27.6036 59.0217 29.0484C59.0217 29.1189 59.057 29.1893 59.1274 29.2246C58.176 28.8017 57.0836 28.8369 56.1673 29.2951C56.1321 28.3788 56.3435 27.6388 56.7312 26.8635C56.8721 26.8283 56.9426 26.6169 56.8016 26.5111L56.7664 26.4759C56.4492 26.2645 56.2026 26.0178 56.0264 25.7711C58.1055 24.4673 60.0789 23.7977 62.4752 23.4453Z" fill="#FAD399"/>
<path d="M60.6779 31.7272C60.6074 31.8329 60.6074 31.9739 60.7131 32.0796C60.7131 32.9958 60.1845 33.9473 59.515 34.7225C59.4797 34.7225 59.4445 34.6873 59.4093 34.6873C59.374 34.6873 59.374 34.6873 59.3388 34.6873C58.3521 33.9473 57.013 33.7006 55.7796 33.912C55.8501 32.7491 55.5329 31.551 54.8281 30.67C54.8634 30.67 54.8986 30.67 54.9338 30.6348C56.2377 29.1547 58.4578 28.7671 59.9378 30.2824C60.3607 30.7405 60.5722 31.2338 60.6779 31.7272ZM60.1845 31.5862C60.2902 31.4805 60.0788 31.3396 59.9731 31.4453C59.8321 31.5862 59.6559 31.7272 59.515 31.8329C59.4445 31.7272 59.4093 31.6215 59.3388 31.551C59.2683 31.4453 59.0921 31.551 59.1626 31.6567C59.2331 31.7624 59.2683 31.8681 59.3035 31.9739C59.1626 32.0443 59.0216 32.1501 58.8807 32.1853C58.7397 32.2558 58.8102 32.4672 58.9511 32.3967C59.0921 32.3615 59.2331 32.291 59.374 32.2205C59.4093 32.3615 59.4445 32.5025 59.4797 32.6434C59.5502 32.7844 59.7264 32.7491 59.7616 32.6082C59.7616 32.432 59.7264 32.2558 59.6559 32.0796C59.8674 31.9386 60.0436 31.7624 60.1845 31.5862Z" fill="#EE6A71"/>
<path d="M58.951 63.3377C59.9729 63.1262 61.1006 62.8796 62.2282 62.5977C60.6425 68.4826 59.2681 74.4381 57.9643 80.3936V80.4288C56.4137 80.746 54.828 80.9574 53.2422 81.0631C54.2289 75.3896 55.0394 69.6455 55.7442 63.9368C56.7661 63.7606 57.8586 63.5491 58.951 63.3377Z" fill="#99D9D7"/>
<path d="M58.9158 35.0403C60.8892 36.3794 59.9025 39.3396 58.1405 40.3615C56.6605 41.2425 54.5813 40.7844 53.5594 39.41C52.5022 37.93 52.9956 36.1328 54.1585 34.8994C55.709 34.1594 57.471 34.0536 58.9158 35.0403ZM55.4623 36.2032C55.6033 36.2032 55.6385 35.9918 55.4976 35.9566C55.3566 35.9213 55.1804 35.9213 55.0395 35.9213C55.0042 35.8156 55.0042 35.7451 54.969 35.6394C54.9337 35.4985 54.7223 35.5689 54.7575 35.7099C54.7928 35.7804 54.7928 35.8508 54.7928 35.9566C54.5813 35.9918 54.3699 36.0623 54.1937 36.168C54.1232 36.2385 54.1585 36.3442 54.2642 36.3442C54.4404 36.309 54.6518 36.2385 54.828 36.2385C54.8633 36.4147 54.8985 36.5556 54.969 36.6966C55.0395 36.8023 55.2157 36.7671 55.2157 36.6261C55.2157 36.4852 55.1804 36.3442 55.1452 36.2385C55.2509 36.168 55.3566 36.2032 55.4623 36.2032Z" fill="#EE6A71"/>
<path d="M55.6384 29.367C55.6384 29.4374 55.6736 29.5079 55.7089 29.5432C55.3565 29.7898 55.0041 30.0717 54.7222 30.4594C54.1583 25.7373 49.9648 22.2838 45.4189 21.579C47.2162 21.3324 48.9781 20.6981 50.2467 19.5352C51.0925 21.1914 53.1716 22.6715 55.1098 22.2838C54.6869 23.8344 54.6517 26.0192 56.3079 26.7592C55.7441 27.464 55.5679 28.4507 55.6384 29.367Z" fill="#66C7C2"/>
<path d="M54.1936 30.6347C55.1099 31.5157 55.3918 32.7491 55.3213 33.9825C54.7222 34.1234 54.1584 34.3349 53.7003 34.652C53.5593 34.7578 53.5593 34.9339 53.6651 35.0397C53.2774 35.3921 52.9603 35.8502 52.7841 36.3435C49.5773 36.7312 47.4629 33.031 49.8592 30.5995C51.0221 29.4014 52.9955 29.5071 54.1936 30.6347ZM51.8678 34.4406C51.9736 34.3701 51.9383 34.1939 51.7621 34.2292C51.5507 34.2644 51.3745 34.3349 51.1631 34.3701C51.1983 34.1939 51.2688 34.053 51.3745 33.8768C51.445 33.771 51.304 33.6301 51.1983 33.7006C50.9869 33.8768 50.8811 34.0882 50.8459 34.3349C50.7049 34.2996 50.5287 34.2644 50.3878 34.2292C50.2468 34.1587 50.1764 34.4054 50.2821 34.4406C50.423 34.5111 50.6345 34.5816 50.8459 34.6168C50.8811 34.8282 50.9869 35.0397 51.1278 35.1806C51.1983 35.2863 51.3745 35.1454 51.304 35.0397C51.1983 34.8987 51.1631 34.7578 51.1631 34.6168C51.445 34.652 51.6916 34.5816 51.8678 34.4406Z" fill="#EE6A71"/>
<path d="M54.6524 30.4947C54.3705 30.2127 54.0533 29.9308 53.6304 29.7194C52.8904 29.3318 52.0447 29.226 51.2694 29.367C50.7056 28.5917 49.6484 28.3451 48.7674 28.627C48.5559 27.8869 48.5559 27.1469 47.7807 26.724C47.0407 26.3364 46.2301 26.5126 45.4901 26.7945C45.3492 25.6669 45.3844 24.5392 44.7853 23.5525C44.3625 22.8477 43.7281 22.2839 43.0586 21.861C45.6311 21.7905 48.1331 22.3896 50.2474 23.9049C52.538 25.5964 53.7361 27.8869 54.6524 30.4947Z" fill="#66C7C2"/>
<path d="M55.216 63.9707C54.2998 69.609 53.5245 75.353 52.9255 81.0266C51.9035 81.0971 50.8816 81.0971 49.8244 81.0618C49.9301 75.494 49.8244 69.9614 49.7539 64.3936C51.6216 64.3936 53.4188 64.2526 55.216 63.9707Z" fill="#66C7C2"/>
<path d="M52.6788 36.6955C52.5026 37.3298 52.5378 37.9993 52.714 38.6336C50.8816 38.0346 48.591 38.3869 47.2872 36.7659C45.1375 34.1582 47.71 30.2114 50.353 29.1895C50.5292 29.2599 50.6701 29.4009 50.8111 29.5066C50.2473 29.718 49.7187 30.0704 49.2958 30.5638C47.111 33.2772 49.2606 37.4002 52.6788 36.6955Z" fill="#FDE9CC"/>
<path d="M49.4015 64.465C49.4367 70.0328 49.4367 75.5654 49.6129 81.1333C48.5205 81.098 47.4985 81.0275 46.4766 80.9218C46.7585 75.4245 46.5118 69.8919 46.0537 64.3945C47.1814 64.465 48.309 64.465 49.4015 64.465Z" fill="#99D9D7"/>
<path d="M45.6311 64.3584C46.0892 69.8558 46.1597 75.3531 46.2301 80.8857C45.4196 80.78 44.6091 80.639 43.8339 80.4981C43.4815 77.8199 43.0586 75.1417 42.671 72.4635C42.2481 69.6443 42.0014 66.7195 41.4023 63.9355C42.6357 64.1117 43.8339 64.2527 44.9615 64.3584C45.2082 64.3232 45.4196 64.3232 45.6311 64.3584Z" fill="#66C7C2"/>
<path d="M42.1419 71.9001C42.5648 74.7193 43.0229 77.5737 43.5515 80.3928C42.6001 80.1814 41.6838 79.8642 40.8028 79.5118C39.6752 73.9792 38.477 68.3762 37.0322 62.9141C38.3361 63.3017 39.7104 63.6188 41.0495 63.8303C41.1552 66.5437 41.7191 69.2572 42.1419 71.9001Z" fill="#99D9D7"/>
<path d="M40.4503 79.3706C39.2874 78.8773 38.1597 78.243 37.0673 77.3972C37.0673 77.362 37.0673 77.3268 37.0673 77.2915C35.9396 73.6619 34.7415 70.0322 33.5433 66.4378C32.8033 64.2529 32.1337 61.9271 31.3232 59.707C31.6756 60.1299 32.0985 60.5528 32.6271 60.9052C33.7548 61.6804 35.0939 62.2795 36.4682 62.7729C37.5959 68.3407 38.9702 73.8733 40.4503 79.3706Z" fill="#66C7C2"/>
<path d="M72.0956 39.7268C71.4261 40.6078 70.7213 41.4536 70.2279 42.4755C69.805 43.3917 69.5936 44.308 69.3117 45.2242C69.3469 45.2242 69.4174 45.2594 69.4527 45.3299C70.0165 46.0699 70.0165 46.9862 69.6288 47.7262C70.5451 48.4662 70.6156 49.7701 69.946 50.7568C70.0165 50.7568 70.087 50.792 70.1222 50.8625C70.7918 52.1311 70.686 53.5055 70.0165 54.6331C70.0165 54.6331 70.0517 54.6331 70.0517 54.6684C71.0737 55.6903 70.7213 56.9237 69.8755 57.8047C68.9241 61.1877 67.7612 64.5002 66.8097 67.8832C65.8935 71.2309 65.2239 74.6139 64.3077 77.9616C64.3429 78.0321 64.3077 78.1378 64.2372 78.1731C64.202 78.2436 64.1315 78.2788 64.061 78.2788C59.198 80.7456 53.7711 81.4503 48.3442 81.2037C44.3974 81.0275 39.1115 80.5341 36.4333 77.1864C36.3628 77.1864 36.2571 77.1511 36.2219 77.0454C35.059 73.5215 33.9313 69.9975 32.7684 66.5088C31.6055 63.0554 30.0902 59.5314 29.3854 55.937C29.3854 55.9017 29.3854 55.9017 29.4206 55.9017C29.174 54.4922 29.2092 53.0121 29.3854 51.6025C28.6101 49.7701 28.4692 47.7262 29.3854 45.8585C29.3854 45.8233 29.4206 45.8233 29.4206 45.8233C29.2092 44.4842 29.3149 43.0746 29.8083 41.806C30.4074 40.2202 31.6407 38.4582 33.5084 38.9868C34.0723 35.8153 37.1381 33.5599 40.5211 34.159C41.0497 33.8066 41.7192 33.5599 42.5297 33.5247C42.565 33.5247 42.6002 33.5247 42.6354 33.5599C43.5164 31.0227 45.7013 29.0493 47.7804 27.4988C47.7099 27.3226 47.6394 27.1111 47.5337 26.9702C46.9346 26.2654 45.8422 26.5473 45.1022 26.7587C45.067 26.7587 45.0317 26.7587 44.9965 26.7235C44.926 26.7235 44.8203 26.6882 44.785 26.5825C44.4326 25.7015 44.6441 24.6796 44.2565 23.7986C43.8336 22.8119 42.9878 22.1424 42.1421 21.508C42.0011 21.4023 42.0716 21.2261 42.2126 21.1909C42.2478 21.1557 42.2478 21.1557 42.283 21.1204C42.2478 21.0499 42.3183 20.9442 42.424 20.9442C45.3136 20.9442 47.3575 20.028 49.8948 18.7594C50.0005 18.7241 50.1062 18.7946 50.1062 18.8651L50.1414 18.9003C50.6348 19.7813 51.3748 20.4509 52.2558 20.909C53.2073 21.3671 54.0883 21.3319 55.1102 21.3671C55.3216 21.3671 55.3569 21.649 55.1807 21.7195C55.0397 22.5652 54.934 23.4462 55.1102 24.1862C55.3569 23.1291 57.0131 22.6005 57.9294 22.2481C59.4447 21.7195 61.4181 21.508 62.8981 22.3186C63.9553 22.9176 63.5677 23.3405 62.8981 24.1158C61.2066 26.1244 60.678 28.7321 61.4181 31.2341C61.4181 31.2694 61.4181 31.3046 61.4181 31.3046C61.559 31.3399 61.6647 31.3399 61.8057 31.3399C62.1581 31.3399 62.4752 31.1637 62.8276 31.1284C62.8981 31.1284 62.9686 31.1284 63.0391 31.1637C63.1096 31.1637 63.2153 31.1989 63.2505 31.3046C63.7791 33.8419 66.2459 34.1238 68.4307 33.7361C68.5012 33.7361 68.5717 33.7361 68.6069 33.7714C68.7126 33.7714 68.8183 33.8419 68.8183 33.9828C68.7831 35.2514 68.9593 36.4143 69.7346 37.4715C70.3336 38.282 71.1089 38.7401 71.9899 39.1982C72.0604 39.1982 72.1308 39.2335 72.1661 39.304C72.1661 39.304 72.2013 39.304 72.2013 39.3392C72.2718 39.5506 72.2366 39.7621 72.0956 39.7268ZM68.9241 44.6604C69.206 42.8279 70.3689 40.8545 71.6023 39.6564C69.4527 39.0573 68.0783 36.5201 68.3602 34.3704C66.2459 34.8638 62.8981 34.4409 62.8981 31.6922C62.6514 31.9037 62.0876 31.9742 61.8409 32.0094C61.4885 32.0446 61.1009 32.0094 60.7837 31.9037C60.819 32.8904 60.5018 33.9123 59.6913 34.4762C64.3429 35.7448 68.0078 39.903 68.9241 44.6604ZM67.444 58.7209C68.6069 58.298 71.3556 56.7475 69.805 55.0208C69.5584 55.3379 69.2412 55.6551 68.8888 55.937C67.0211 57.3466 64.5544 57.3818 62.3695 56.818C59.3389 56.0427 56.8017 54.1398 53.9121 53.1178C50.5996 51.9197 47.1461 52.2721 43.7279 52.554C38.9353 52.9416 32.557 52.8359 30.1254 47.7967C29.8788 47.2681 29.7026 46.7043 29.5616 46.1404C27.3063 55.7255 38.9705 59.0381 46.3003 59.3904C50.4586 59.6019 54.5464 58.6152 58.7046 58.7914C60.6428 58.8971 62.581 59.2495 64.5191 59.2143C65.4706 59.179 66.4925 59.0733 67.444 58.7209ZM64.801 56.5361C67.6202 56.5713 71.2146 54.4569 69.7346 51.1444V51.1092C68.2897 52.7302 65.3296 52.9416 63.321 52.9064C60.5018 52.8712 57.7532 52.0606 55.1454 50.9682C51.9739 49.5939 49.1195 47.5852 45.6308 47.1271C41.1554 46.5281 34.4951 46.8804 33.5084 41.0307C33.4027 40.4316 33.4027 39.8678 33.4732 39.304C30.4778 38.7401 29.6321 43.6384 29.9845 45.6823C30.3721 47.9024 31.7817 49.6644 33.7199 50.7568C37.6667 52.9416 42.283 52.0254 46.547 51.7787C48.5909 51.673 50.6348 51.6378 52.6082 52.1311C54.4759 52.5892 56.2026 53.4702 57.8941 54.316C60.079 55.4084 62.3343 56.5361 64.801 56.5361ZM67.6202 51.673C68.8183 51.2501 70.9327 49.4882 69.3822 48.1843C69.2412 48.3605 69.065 48.5367 68.8536 48.6777C67.4792 49.6644 65.5411 49.2415 64.061 48.7129C61.6295 47.8672 59.4446 46.5985 56.9426 45.9995C54.2292 45.3652 51.4805 45.3652 48.7319 45.189C45.1727 44.9423 40.662 43.9556 39.1467 40.2202C38.3362 38.2468 38.6886 35.78 40.1334 34.4762C35.5171 34.3 32.0284 39.4449 35.1647 43.427C37.7724 46.7747 42.6707 46.0347 46.3708 46.6338C50.4234 47.3033 53.8416 50.0168 57.6827 51.2854C59.797 51.9902 62.0171 52.413 64.2725 52.3073C65.4001 52.2368 66.563 52.0606 67.6202 51.673ZM69.4527 58.2276C69.3117 58.3333 69.1707 58.439 69.0298 58.5447C68.4659 59.2143 67.7612 59.7781 66.9859 60.2362C65.3649 66.4031 63.7791 72.6052 61.9467 78.7369C62.6162 78.455 63.2505 78.1731 63.8848 77.8559C64.4487 74.3672 65.4706 70.8785 66.4221 67.4955C67.3383 64.3592 68.2193 61.2229 69.4527 58.2276ZM66.7745 48.6424C68.2545 48.6072 70.0165 47.4443 69.1707 45.788C69.1355 45.8585 69.1355 45.929 69.1003 45.9995C69.1003 46.0699 69.1003 46.1052 69.1003 46.1757C69.1003 46.2109 69.1355 46.2461 69.1355 46.2461C69.1707 46.3166 69.1355 46.3519 69.1003 46.3871C69.1003 46.5985 68.7831 46.6338 68.7479 46.4223C68.7479 46.3519 68.7126 46.2814 68.7126 46.2109C68.0431 45.189 67.1973 44.6604 66.2459 44.308C66.2459 44.308 66.2459 44.3432 66.2106 44.3432C64.0258 46.7747 60.4666 44.167 58.1408 43.3917C54.2997 42.1231 50.1767 43.5679 46.3708 41.7355C43.8688 40.5373 41.9659 38.0706 42.2478 35.1457C42.283 34.6876 42.3888 34.2647 42.5297 33.8066C38.2657 34.5114 38.5829 39.8326 41.2259 42.1231C43.8688 44.4489 47.6042 44.5546 50.9519 44.6604C54.053 44.8366 57.0484 45.189 59.9732 46.3166C61.4181 46.8804 62.7924 47.6205 64.2372 48.1491C65.0477 48.3957 65.8935 48.6424 66.7745 48.6424ZM68.5364 45.2242C67.4088 40.185 64.2725 36.5553 59.3742 34.6171C59.5151 34.7581 59.6561 34.899 59.7618 35.0752C60.5371 36.2029 60.3256 37.6125 59.6208 38.7754C59.8675 38.8811 60.0437 39.1278 60.1142 39.3392C60.1847 39.5154 60.2199 39.7621 60.2199 39.9735C60.9952 39.5859 62.1581 40.0088 62.7219 40.6078C63.0391 40.9602 63.2505 41.4536 63.2857 41.9469C63.321 42.2288 63.2857 42.5108 63.2153 42.7927C63.2153 42.8279 63.1096 43.0746 63.0038 43.2508C64.942 43.1451 67.2678 43.6737 68.5364 45.2242ZM67.3735 59.32C66.2811 59.6724 65.083 59.7781 63.9553 59.7781C61.1009 59.7428 58.3522 59.2143 55.4626 59.4257C52.6082 59.6371 49.7538 60.06 46.8642 59.9895C42.0716 59.8486 36.6095 58.9676 32.6979 55.9722C31.4645 55.0208 30.3369 53.6817 29.5968 52.2016C29.5968 53.8579 29.5264 55.5141 30.055 57.0646C30.8655 59.3552 32.8036 60.6238 34.9885 61.4343C38.6181 62.8087 42.5297 63.443 46.3708 63.6192C49.2605 63.7249 52.1501 63.5487 55.0045 63.1258C55.0397 63.1258 55.075 63.0906 55.1102 63.1258C56.2026 62.9496 57.295 62.7382 58.3875 62.5268C61.4181 61.7867 64.801 61.0819 67.3735 59.32ZM57.1893 42.5812C59.6208 43.0746 63.4267 46.1757 65.7173 44.2022C64.7658 43.9556 63.7086 43.8851 62.6162 43.7441C62.3695 43.7089 62.3695 43.3565 62.6162 43.3565H62.6514C62.6867 43.1451 62.7924 42.9689 62.8276 42.7927C62.9334 42.2993 62.8629 41.7707 62.581 41.3126C62.299 40.8897 61.8762 40.5726 61.3828 40.4316C60.8895 40.3259 60.5371 40.4669 60.0437 40.5021C59.9732 40.5021 59.9028 40.4669 59.8675 40.3964C59.8675 40.3964 59.8675 40.3612 59.8675 40.3259V40.2907C59.9028 40.044 59.8675 39.8326 59.7266 39.5859C59.6561 39.4802 59.5504 39.3744 59.4447 39.304C59.4094 39.2687 59.3742 39.2687 59.3389 39.2335C59.0218 39.6916 58.5989 40.0792 58.176 40.3964C56.4845 41.5241 53.9825 41.0659 52.7844 39.3744C52.6434 39.1982 52.5377 38.9868 52.4672 38.7754C49.789 38.2468 46.1594 38.2468 45.666 34.8286C45.3136 32.3618 47.2166 29.296 49.6833 28.7321C49.2957 28.5559 48.8376 28.5559 48.3442 28.6617C48.2737 28.6969 48.2033 28.6969 48.1328 28.6264C47.9214 28.415 47.8861 28.1331 47.8156 27.8511C45.5603 30.036 42.7764 32.2913 42.7059 35.7095C42.6354 38.9868 45.5603 41.2069 48.4852 41.9469C51.4101 42.687 54.3349 41.9822 57.1893 42.5812ZM62.8981 23.5519C62.9334 23.4462 62.9334 23.3405 62.9334 23.27C61.8762 23.27 60.6428 24.9263 60.1494 25.7368C59.5856 26.653 59.2332 27.675 59.0923 28.7674C59.057 28.9083 58.9161 28.9436 58.7751 28.8731C58.7046 28.8379 58.6694 28.7674 58.6694 28.6969C58.7751 27.2521 59.3037 25.8777 60.2199 24.7501C60.5723 24.292 61.3828 23.3757 62.1228 23.0938C59.7266 23.4462 57.7532 24.1158 55.6036 25.3844C55.7797 25.6311 56.0264 25.8777 56.3436 26.0892C56.3436 26.0892 56.3788 26.0892 56.3788 26.1244C56.5198 26.2301 56.4493 26.4768 56.3083 26.4768C55.9559 27.2873 55.7093 28.0273 55.7445 28.9083C56.6607 28.4502 57.7532 28.415 58.7046 28.8379C59.0923 29.0141 59.4799 29.2607 59.797 29.6131C60.2199 30.036 60.5018 30.6351 60.6076 31.2694C60.678 31.3046 60.7485 31.3046 60.8542 31.3399C60.2552 29.155 60.5018 26.8292 61.7 24.891C61.9819 24.5739 62.7924 23.9043 62.8981 23.5519ZM66.3868 60.5886C65.1534 61.2581 63.7439 61.7163 62.3695 62.1039C62.3695 62.1391 62.3695 62.1744 62.3695 62.2096C61.0304 68.1651 59.4799 74.0853 57.8941 80.0055C59.198 79.7236 60.4666 79.336 61.7352 78.8426C63.1096 72.711 64.7658 66.6498 66.3868 60.5886ZM55.3921 25.0672C57.3303 23.5519 60.0437 22.6005 62.5105 22.7767C61.9114 22.4243 60.8542 22.389 60.3609 22.389C58.9513 22.389 55.8855 23.0586 55.2159 24.5034C55.2159 24.5386 55.1807 24.5386 55.1454 24.5386C55.2159 24.7148 55.2864 24.891 55.3921 25.0672ZM60.3256 31.7275C60.2199 31.6218 60.2199 31.4808 60.2904 31.3751C60.2199 30.8817 59.9732 30.3884 59.5504 29.9655C58.0703 28.4502 55.8502 28.8379 54.5464 30.3179C54.5111 30.3532 54.4759 30.3532 54.4406 30.3532C55.1454 31.2341 55.4626 32.4323 55.3921 33.5952C56.6607 33.419 57.9646 33.6304 58.9513 34.3704C58.9865 34.3704 58.9865 34.3704 59.0218 34.3704C59.057 34.3704 59.0923 34.3704 59.1275 34.4057C59.8323 33.5952 60.3256 32.6437 60.3256 31.7275ZM61.8762 62.2448C60.7485 62.5268 59.6208 62.7734 58.5989 62.9849C57.5417 63.2315 56.4493 63.4077 55.3569 63.5839C54.6873 69.2927 53.8768 75.0368 52.8549 80.7103C54.4406 80.6046 56.0264 80.3932 57.577 80.076C57.577 80.076 57.577 80.076 57.577 80.0408C58.9161 74.0853 60.2904 68.1298 61.8762 62.2448ZM57.8236 40.044C59.5856 39.0221 60.5723 36.0619 58.5989 34.7228C57.1541 33.7361 55.3569 33.8419 53.8768 34.5819C52.7139 35.8153 52.2206 37.6125 53.2778 39.0925C54.2292 40.4669 56.3083 40.925 57.8236 40.044ZM55.3921 29.155C55.3569 29.1198 55.3216 29.0493 55.3216 28.9788C55.2159 28.0626 55.4274 27.0759 55.9912 26.3711C54.3349 25.6311 54.3702 23.4462 54.793 21.8957C52.8549 22.3186 50.7405 20.8033 49.93 19.147C48.6261 20.3451 46.8289 20.9795 45.067 21.2261C49.6128 21.9309 53.8063 25.3844 54.4054 30.0712C54.6873 29.7188 55.0045 29.4017 55.3921 29.155ZM54.9692 33.6304C55.075 32.397 54.7578 31.1637 53.8416 30.2827C52.6787 29.155 50.67 29.0493 49.5071 30.2474C47.1108 32.7142 49.2252 36.3791 52.432 35.9915C52.6082 35.4981 52.8901 35.04 53.313 34.6876C53.2073 34.5819 53.172 34.4057 53.3482 34.3C53.8063 34.0181 54.3702 33.7714 54.9692 33.6304ZM54.3702 30.177C54.3702 30.1417 54.3349 30.1417 54.3349 30.1417C54.3349 30.1417 54.3349 30.1417 54.3349 30.1065C53.4187 27.534 52.2206 25.2082 49.93 23.5872C47.8156 22.0366 45.3136 21.4728 42.7412 21.5433C43.4107 22.0014 44.045 22.53 44.4679 23.2348C45.067 24.2215 44.9965 25.3844 45.1727 26.4768C45.9127 26.1597 46.7232 25.9835 47.4632 26.4063C48.2033 26.8292 48.2385 27.5692 48.4499 28.3093C49.3309 27.9921 50.3881 28.274 50.9519 29.0493C51.7272 28.9083 52.573 29.0141 53.313 29.4017C53.7006 29.6131 54.053 29.8598 54.3349 30.177C54.3349 30.1417 54.3349 30.177 54.3702 30.177ZM52.6082 80.7103C53.2073 75.0015 53.9825 69.2927 54.8988 63.6544C53.1016 63.9011 51.3043 64.0773 49.4719 64.1125C49.5424 69.6804 49.6128 75.213 49.5424 80.7808C50.5291 80.7808 51.5863 80.7456 52.6082 80.7103ZM52.3263 38.282C52.1501 37.6477 52.1501 36.9782 52.291 36.3439C48.8728 37.0486 46.7232 32.9256 48.9081 30.2122C49.3309 29.7188 49.8243 29.3312 50.4234 29.155C50.2824 29.0141 50.1414 28.9083 49.9652 28.8379C47.3223 29.895 44.7498 33.8066 46.8994 36.4143C48.2385 38.0353 50.4938 37.683 52.3263 38.282ZM49.2957 80.7456C49.0843 75.213 49.1195 69.6451 49.0843 64.0773C47.9566 64.1125 46.8642 64.0773 45.7717 64.0068C46.1946 69.5042 46.4413 75.0368 46.1946 80.5341C47.1461 80.6751 48.2033 80.7103 49.2957 80.7456ZM45.9127 80.5341C45.8422 75.0015 45.7365 69.5394 45.3136 64.0068C45.1022 64.0068 44.8555 63.9716 44.6441 63.9716C43.5164 63.8659 42.3183 63.7601 41.0849 63.5487C41.684 66.3326 41.9306 69.2575 42.3535 72.0767C42.7412 74.7548 43.164 77.433 43.5164 80.1112C44.2565 80.2874 45.067 80.4284 45.9127 80.5341ZM43.1993 80.0408C42.6707 77.2216 42.2126 74.4025 41.7897 71.5481C41.3668 68.8699 40.8382 66.1564 40.662 63.4782C39.3229 63.2668 37.9486 62.9849 36.6447 62.562C38.0895 68.0241 39.3229 73.5919 40.4154 79.1598C41.3316 79.5122 42.2478 79.8293 43.1993 80.0408ZM36.7152 77.0807C37.8076 77.8912 38.9353 78.5255 40.0982 79.0541C38.6181 73.5567 37.2438 67.9889 36.1161 62.4563C34.7418 61.9982 33.4027 61.3991 32.275 60.5886C31.7464 60.2362 31.3236 59.8486 30.9712 59.3904C31.7817 61.6105 32.4512 63.9363 33.1913 66.1212C34.3894 69.7156 35.5875 73.3453 36.7152 76.9749C36.7152 77.0102 36.7152 77.0454 36.7152 77.0807Z" fill="#252A34"/>
<path d="M59.6566 31.057C59.7623 30.9513 59.9385 31.0922 59.868 31.1979C59.727 31.4094 59.5508 31.5503 59.3394 31.6913C59.4099 31.8675 59.4451 32.0437 59.4451 32.2199C59.4451 32.3608 59.2337 32.3961 59.1632 32.2551C59.0927 32.1142 59.0927 31.9732 59.0575 31.8322C58.9165 31.9027 58.7756 31.9732 58.6346 32.0084C58.4937 32.0437 58.4232 31.8322 58.5641 31.797C58.7051 31.7265 58.8461 31.656 58.987 31.5856C58.9518 31.4798 58.8813 31.3741 58.8461 31.2684C58.7756 31.1275 58.9518 31.0217 59.0223 31.1627C59.0927 31.2332 59.128 31.3389 59.1984 31.4446C59.3394 31.3389 59.4804 31.1979 59.6566 31.057Z" fill="#252A34"/>
<path d="M55.1453 35.6031C55.2863 35.6383 55.251 35.8497 55.1101 35.8497C55.0043 35.8497 54.8634 35.8497 54.7577 35.8497C54.7929 35.9907 54.8281 36.0964 54.8281 36.2374C54.8281 36.3431 54.6519 36.4136 54.5815 36.3078C54.511 36.1669 54.4757 36.0259 54.4405 35.8497C54.2291 35.885 54.0529 35.9202 53.8767 35.9555C53.771 35.9555 53.7357 35.8497 53.8062 35.7793C53.9824 35.6735 54.1938 35.6031 54.4053 35.5678C54.4053 35.4973 54.37 35.3916 54.37 35.3211C54.3348 35.1802 54.5462 35.1097 54.5815 35.2507C54.6167 35.3564 54.6167 35.4269 54.6519 35.5326C54.8634 35.5678 55.0043 35.5678 55.1453 35.6031Z" fill="#252A34"/>
<path d="M51.4451 33.8776C51.586 33.8423 51.6565 34.0185 51.5508 34.089C51.3746 34.23 51.0927 34.3004 50.846 34.3004C50.846 34.4414 50.9165 34.5823 50.9869 34.7233C51.0574 34.829 50.8812 34.9347 50.8107 34.8643C50.6698 34.6881 50.5641 34.5119 50.5288 34.3004C50.3174 34.2652 50.1412 34.1947 49.965 34.1242C49.824 34.0538 49.9298 33.8423 50.0707 33.9128C50.2117 33.9833 50.3526 34.0185 50.5288 34.0185C50.5641 33.7718 50.6698 33.5252 50.8812 33.3842C50.9869 33.3137 51.1279 33.4547 51.0574 33.5604C50.9517 33.7014 50.8812 33.8776 50.846 34.0538C51.0574 33.9833 51.2336 33.9128 51.4451 33.8776Z" fill="#252A34"/>
</svg>
