<svg width="70" height="70" viewBox="0 0 70 70" fill="none" xmlns="http://www.w3.org/2000/svg">
<circle cx="35" cy="35" r="35" fill="white"/>
<circle cx="35" cy="35" r="34.75" stroke="#FF2E63" stroke-opacity="0.2" stroke-width="0.5"/>
<circle cx="34.8252" cy="34.8242" r="30.625" fill="white"/>
<circle cx="34.8252" cy="34.8242" r="30.375" stroke="#FF2E63" stroke-opacity="0.2" stroke-width="0.5"/>
<path d="M47.605 37.8105C47.4457 39.5404 47.0588 41.2474 46.7856 42.9318C46.3987 45.2078 45.989 47.4839 45.6021 49.7373C45.2379 51.8085 45.3517 54.9495 43.1667 55.951C42.7114 56.1558 42.2107 56.3379 41.71 56.4745C42.5066 54.0391 43.0073 51.4671 43.5536 48.9634C44.0999 46.5052 44.3957 44.1153 44.3957 41.5889C44.3957 41.5206 44.373 41.4751 44.3275 41.4523C45.2151 40.9516 46.0118 40.3142 46.6718 39.4493C47.0588 38.9486 47.3774 38.3796 47.605 37.8105Z" fill="#F8BE66"/>
<path d="M46.4444 14.9141C46.4216 16.1432 46.7858 17.4178 47.6052 18.2372C45.9437 18.4875 44.3504 20.6271 44.9649 22.2431C43.2806 21.5147 41.0045 22.63 40.7087 24.4964C40.5266 24.246 40.2762 24.0412 40.0713 23.8591C39.8437 23.677 39.5478 23.4494 39.252 23.3584C39.5934 22.7893 39.821 22.1293 39.821 21.3554C39.8437 21.3554 39.8665 21.3782 39.8893 21.3554C42.7571 20.6726 45.3746 17.8275 46.4444 14.9141Z" fill="#66C7C2"/>
<path d="M46.057 31.666C48.3331 34.0559 48.0372 37.6749 45.6928 39.951C43.1891 42.4092 39.4108 42.6368 36.1105 42.9554C32.7646 43.2741 29.4188 43.0692 26.2778 41.7946C22.9092 40.429 22.3174 36.901 23.7286 33.9193C23.7513 34.5566 23.9107 35.2167 24.2065 35.8085C25.3218 38.1301 27.8255 39.2682 30.2837 39.4958C35.678 40.042 42.6884 38.5853 45.5108 33.4414C45.7839 32.8723 45.9887 32.2806 46.057 31.666ZM46.8992 35.0574C46.9447 35.1484 47.1268 35.0802 47.0813 34.9891C47.013 34.7843 46.9219 34.5567 46.6716 34.5339C46.4895 34.5111 46.3074 34.6249 46.3074 34.8298C46.3074 34.9436 46.4895 34.9436 46.5122 34.8298C46.5122 34.7615 46.6488 34.7615 46.6943 34.7843C46.8081 34.8298 46.8536 34.9663 46.8992 35.0574ZM46.5578 34.0104C46.6488 34.0787 46.7398 33.9421 46.6716 33.8511C46.5578 33.6917 46.3757 33.5779 46.1708 33.5779C46.0115 33.5779 45.8522 33.669 45.7839 33.8055C45.7384 33.8966 45.8977 33.9876 45.9432 33.8966C46.1481 33.7145 46.3757 33.8966 46.5578 34.0104ZM45.9205 34.3518C45.966 34.3063 45.9205 34.1925 45.8294 34.2152C45.6928 34.2608 45.5335 34.1925 45.6018 34.0331C45.6473 33.8966 45.4197 33.8283 45.3742 33.9649C45.2604 34.3063 45.6701 34.6249 45.9205 34.3518ZM42.347 41.2256C42.4608 41.1573 42.3925 40.9525 42.2559 40.998C42.1877 41.0207 42.0739 41.0207 42.0283 40.9297C41.9828 40.8387 42.0739 40.7476 42.1649 40.7249C42.3015 40.7021 42.2559 40.4972 42.1421 40.52C41.8918 40.52 41.7097 40.7704 41.778 41.0207C41.869 41.2256 42.1421 41.3394 42.347 41.2256ZM41.0724 41.6808C41.2772 41.6581 41.4138 41.4987 41.391 41.2939C41.391 41.1801 41.2089 41.1573 41.1862 41.2711C41.1634 41.3394 41.1179 41.4304 41.0496 41.4532C40.9586 41.476 40.8903 41.3849 40.8675 41.3166C40.8448 41.1801 40.6399 41.2484 40.6627 41.3849C40.7082 41.567 40.8903 41.7036 41.0724 41.6808ZM41.1407 40.8614C41.1862 40.9752 41.3455 40.9297 41.3227 40.8159C41.2772 40.6111 41.0724 40.4745 40.8675 40.4972C40.6627 40.52 40.5261 40.7021 40.5261 40.9069C40.5261 41.0207 40.6854 40.998 40.6854 40.9069C40.7082 40.6338 41.0496 40.6111 41.1407 40.8614ZM29.9878 40.5883C30.1927 40.1103 29.6919 39.6551 29.2367 39.8599C29.1457 39.9055 29.2139 40.0648 29.305 40.0193C29.6236 39.9055 29.8968 40.1786 29.8057 40.4972C29.783 40.6111 29.9423 40.7021 29.9878 40.5883ZM29.2595 40.3834C29.3277 40.2924 29.2367 40.1558 29.1229 40.2241C28.9863 40.3152 28.736 40.2241 28.827 40.0193C28.8725 39.8827 28.7132 39.7917 28.6449 39.9055C28.5539 40.0876 28.5766 40.3152 28.736 40.429C28.8953 40.5428 29.1457 40.52 29.2595 40.3834ZM24.548 37.379C24.6618 37.379 24.6845 37.1969 24.5707 37.1742C24.3886 37.1286 24.2293 36.8783 24.3204 36.6962C24.3886 36.5596 24.2065 36.4458 24.1155 36.5824C23.8879 36.901 24.1383 37.379 24.548 37.379ZM24.07 38.4715C24.2065 38.4715 24.2065 38.2667 24.07 38.2439C23.9789 38.2439 23.8879 38.2212 23.7968 38.1984C23.7741 38.1984 23.7286 38.1756 23.683 38.1529C23.6603 38.1529 23.6603 38.1301 23.6603 38.1301C23.683 38.0391 23.592 37.9253 23.501 37.9935C23.3644 38.0846 23.4099 38.2439 23.5237 38.335C23.683 38.4488 23.8879 38.4715 24.07 38.4715ZM24.0472 36.0361C24.0927 35.9451 24.0017 35.8313 23.9107 35.8768C23.8651 35.9223 23.7968 35.9451 23.7286 35.9451C23.6603 35.9451 23.6148 35.854 23.6375 35.7857C23.6603 35.6492 23.4554 35.5809 23.4327 35.7175C23.3872 35.8768 23.4554 36.0589 23.6148 36.1272C23.7513 36.2182 23.9562 36.1727 24.0472 36.0361ZM23.8879 37.1059C23.9334 36.8783 23.9107 36.5824 23.6603 36.4913C23.501 36.423 23.2733 36.4686 23.2506 36.6734C23.2278 36.7645 23.3644 36.81 23.3872 36.7189C23.4099 36.6051 23.5692 36.6279 23.6148 36.6962C23.7058 36.7872 23.683 36.9693 23.7058 37.1059C23.7058 37.1742 23.8651 37.2197 23.8879 37.1059Z" fill="#CA9E67"/>
<path d="M43.9406 27.6602C45.0559 28.4568 45.7843 29.7769 45.7615 31.1653C45.7388 32.6448 44.8738 33.9649 43.8951 35.0119C41.8922 37.1742 39.0698 38.335 36.2019 38.8358C33.3113 39.3365 29.7606 39.6324 27.0748 38.244C24.298 36.81 22.7502 32.8952 25.4133 30.6418C25.4815 31.0743 25.6636 31.484 25.9595 31.8482C26.8472 32.8952 28.3949 33.2593 29.6468 33.5325C31.2628 33.8966 32.8788 33.9194 34.5176 33.6235C37.5221 33.0773 41.05 32.1213 42.9619 29.5493C43.3944 29.0031 43.7813 28.343 43.9406 27.6602Z" fill="#F9CDD0"/>
<path d="M46.2842 14.1172C45.7834 15.5056 45.1689 16.803 44.1674 17.9865C42.9383 19.4205 41.4361 20.2171 39.8428 21.1731C39.8201 20.8089 39.7518 20.422 39.6152 20.0805C39.6152 20.0805 39.6152 20.0805 39.638 20.0805C40.0705 19.9895 40.3891 19.375 40.5029 18.9653C40.6167 18.5783 40.6395 18.1686 40.5257 17.7817C41.3451 18.0548 42.4376 17.5768 42.9839 17.0078C43.3253 16.6664 43.6212 16.1884 43.5984 15.6877C43.5984 15.4373 43.5074 15.0276 43.348 14.7317C44.304 14.9821 45.5558 14.8 46.2842 14.1172Z" fill="#66C7C2"/>
<path d="M44.0316 41.6582C43.9861 44.2757 43.6674 46.7566 43.0984 49.3059C42.5521 51.7185 41.8693 54.1084 41.4596 56.5211C41.4596 56.5438 41.4596 56.5666 41.4596 56.5666C40.5036 56.817 39.5022 56.9535 38.5234 57.0446C38.6828 52.4014 38.5234 47.7354 38.5462 43.0694C40.4354 42.8418 42.37 42.5004 44.0316 41.6582Z" fill="#F8BE66"/>
<path d="M41.4143 23.9277C42.5296 24.4968 43.6904 25.6576 43.6676 26.9777C43.6676 28.1613 42.8027 29.3221 41.9833 30.1187C40.2307 31.803 37.7953 32.4631 35.4737 33.0093C32.97 33.6011 30.5118 33.5328 28.0536 32.6679C26.5742 32.1444 25.5272 31.1429 25.8686 29.4814C26.1189 28.3206 26.8018 27.3646 27.735 26.659C27.7577 26.7273 27.7577 26.8184 27.7805 26.8867C28.2357 28.2978 30.2387 28.6392 31.4905 28.662C33.2431 28.7075 35.0412 28.3661 36.6345 27.6605C37.9774 27.0915 39.821 26.0673 40.2307 24.5195C40.39 24.7016 40.5721 24.8837 40.7542 24.8609H40.777C40.8453 24.8609 40.9363 24.8382 40.9591 24.7471C41.1184 24.474 41.255 24.2009 41.4143 23.9277Z" fill="#F9CDD0"/>
<path d="M39.4789 23.9041C39.6838 24.0179 39.8658 24.1544 40.0252 24.3138C39.661 25.7249 38.0222 26.6354 36.7931 27.2271C35.4275 27.8645 33.9025 28.2059 32.3775 28.2969C30.8753 28.388 27.3929 28.1831 28.235 25.7932C28.6219 24.6779 29.8966 24.1772 30.3973 23.1074C30.5111 23.2212 30.6249 23.335 30.716 23.4716C30.6932 23.5626 30.7842 23.6764 30.898 23.6082C31.5126 23.2895 32.1499 23.1757 32.8327 23.2895C33.4245 24.382 34.5853 25.0876 35.9965 25.0649C37.2711 25.0421 38.3636 24.5414 39.0464 23.6992C39.183 23.7447 39.3196 23.813 39.4789 23.9041Z" fill="#F9CDD0"/>
<path d="M39.4335 21.3544C39.4335 23.3346 37.9312 24.632 35.9966 24.6092C34.0846 24.5865 32.719 23.2208 32.8328 21.2861C32.9466 19.1239 34.6992 18.2134 36.6339 18.0996C36.6566 18.0996 36.6794 18.0996 36.6794 18.0996C38.2954 18.3727 39.4335 19.6246 39.4335 21.3544ZM37.2029 18.8962C37.2939 18.8735 37.3167 18.7369 37.2256 18.6914C37.0436 18.6003 36.816 18.6231 36.6339 18.7369C36.4973 18.6459 36.338 18.6003 36.1786 18.6003C36.0876 18.6003 36.0648 18.7597 36.1559 18.7824C36.2697 18.8052 36.338 18.828 36.429 18.8962C36.3607 18.9645 36.2925 19.0328 36.2697 19.1239C36.2242 19.2149 36.3607 19.3515 36.429 19.2377C36.4745 19.1694 36.5428 19.1011 36.6111 19.0556C36.6566 19.1239 36.7021 19.1921 36.7477 19.2604C36.816 19.3742 36.998 19.3059 36.9753 19.1694C36.9525 19.0783 36.9298 19.01 36.8842 18.9418C36.9525 18.919 37.0663 18.919 37.2029 18.8962Z" fill="#EE6A71"/>
<path d="M38.2725 57.043C38.2725 57.0657 38.2952 57.0657 38.2725 57.043C37.749 57.1112 37.2255 57.134 36.7247 57.1795C36.224 57.2023 35.7005 57.225 35.1997 57.225C35.2908 54.9262 35.1087 52.6046 35.0176 50.3285C34.9494 48.0296 34.8583 45.7308 34.79 43.4319C35.3591 43.3864 35.9281 43.3409 36.5199 43.2954C37.0661 43.2498 37.6124 43.1816 38.1587 43.1133C38.2269 47.7565 38.0904 52.4225 38.2725 57.043Z" fill="#F8BE66"/>
<path d="M34.6991 50.33C34.7902 52.6289 34.7674 54.9505 35.0178 57.2493C34.0391 57.2493 33.0603 57.1583 32.1044 57.0217C31.8995 54.8822 31.4671 52.7199 31.1712 50.6031C30.8298 48.1677 30.5111 45.7323 30.2607 43.2969H30.2835C31.6492 43.5245 33.0376 43.5472 34.426 43.479C34.5398 45.7551 34.6081 48.0311 34.6991 50.33Z" fill="#F8BE66"/>
<path d="M31.7863 19.4428C31.9684 19.7615 32.2643 20.1256 32.6512 20.1256C32.5829 20.3305 32.5146 20.5353 32.4691 20.7857C29.4874 20.5581 26.2326 18.4186 25.2539 15.4824C26.1643 16.1652 27.5072 16.5067 28.6225 16.2335C28.3721 16.9164 28.8046 17.8723 29.3281 18.282C29.9199 18.7372 30.9441 18.8283 31.5359 18.3275C31.5132 18.6917 31.6042 19.1014 31.7863 19.4428Z" fill="#66C7C2"/>
<path d="M32.6506 22.8798C32.0816 22.8115 31.4898 22.9253 30.989 23.2212C30.4655 21.8101 28.5081 21.8783 27.3701 22.5156C27.3701 21.1955 26.2775 20.0119 25.0029 19.8299C25.4354 18.8967 25.5947 17.7814 25.4809 16.7344C26.141 17.8269 27.188 18.7829 28.1212 19.5112C29.3503 20.4672 30.898 21.15 32.4685 20.9907C32.4457 21.1045 32.4457 21.1955 32.4457 21.3093C32.3775 21.8556 32.4685 22.4018 32.6506 22.8798Z" fill="#66C7C2"/>
<path d="M30.7621 50.033C31.0807 52.3318 31.3539 54.7217 31.9456 56.975C31.3311 56.8612 30.7393 56.7247 30.1475 56.5653C30.011 56.5198 29.8744 56.4743 29.7378 56.4288V56.406C28.3267 51.7173 26.9838 47.1423 26.4375 42.2715C27.5528 42.7267 28.8046 42.9998 29.9427 43.2047C30.193 45.4808 30.4434 47.7569 30.7621 50.033Z" fill="#F8BE66"/>
<path d="M29.5096 56.3601C28.4854 55.996 27.575 55.4497 27.1425 54.3344C26.7556 53.3785 26.5735 52.3315 26.3003 51.3527C25.7086 49.1449 25.1623 46.9371 24.616 44.7293C24.2519 43.2499 23.956 41.7249 23.5918 40.2227C23.9104 40.6779 24.3201 41.0876 24.8209 41.4517C25.2078 41.7021 25.6175 41.9297 26.05 42.1346C26.619 46.9371 27.5522 51.899 29.5096 56.3601Z" fill="#F8BE66"/>
<path d="M47.8097 35.6714C47.9235 37.9019 47.3089 40.1553 46.9448 42.3631C46.5351 44.7074 46.1481 47.0518 45.7612 49.3962C45.5791 50.466 45.397 51.5357 45.2149 52.6055C45.0784 53.3566 44.9873 54.1987 44.5776 54.8588C43.872 55.9969 42.5064 56.3838 41.2773 56.6569C37.7721 57.408 34.0621 57.7494 30.5569 56.9073C29.1912 56.5886 27.598 56.1334 26.8241 54.8361C25.9592 53.4021 25.7543 51.3764 25.3446 49.7831C24.8439 47.7802 24.3432 45.7772 23.8652 43.7742C23.4783 42.1582 23.0458 40.5194 22.7727 38.8807C22.0898 37.0825 22.363 34.943 23.4555 33.2815C23.5238 32.0524 24.0928 30.9143 25.1626 30.1632C25.0488 28.6155 26.1413 26.8857 27.4842 26.2483C27.4386 24.8372 29.2368 23.7902 29.9879 22.7204C29.1685 22.0603 28.1898 22.1514 27.0972 22.5611C27.0972 22.5838 27.0972 22.5838 27.0972 22.6066C27.0745 22.7887 26.8013 22.7204 26.7786 22.5611C26.6875 21.8555 26.5737 21.1954 26.0502 20.6719C25.6178 20.2167 25.0715 19.9891 24.4797 19.8525C24.4342 19.8298 24.3887 19.807 24.3887 19.7615C24.3659 19.7387 24.3659 19.6932 24.3659 19.6477C24.7984 18.1227 24.8894 16.8253 24.6618 15.2548C24.6391 15.2093 24.6391 15.1638 24.6163 15.0955C24.5935 14.9589 24.7073 14.8907 24.7984 14.8907C24.8211 14.8679 24.8894 14.8451 24.9122 14.8907C26.1868 15.6418 27.2566 15.7556 28.6677 15.5962L28.6905 15.5735C28.736 15.528 28.8043 15.5507 28.8271 15.5962C28.9181 15.6418 28.8953 15.8238 28.8043 15.8694C28.5312 16.5977 28.8271 17.4626 29.4871 17.8496C30.17 18.2593 30.7845 17.9406 31.3535 17.5537C31.3763 17.5537 31.3763 17.5309 31.3991 17.5309C31.4673 17.4626 31.6039 17.4854 31.6039 17.5992C31.6267 18.0544 31.6267 18.5324 31.8315 18.9649C31.9908 19.3063 32.2412 19.4201 32.4916 19.6249C33.1744 18.2365 34.6539 17.5537 36.3382 17.5309C36.3837 17.5309 36.4292 17.5537 36.4747 17.5764C37.7266 17.622 38.7281 18.4641 39.2288 19.5794C39.3198 19.4201 39.4792 19.3063 39.593 19.1242C39.7068 18.9649 39.7978 18.76 39.8661 18.5779C40.0027 18.191 40.0027 17.804 39.9571 17.3944C39.9116 17.3033 39.9799 17.144 40.0937 17.144C40.5262 17.1212 40.8903 17.2123 41.3228 17.1212C41.7325 17.0074 42.1194 16.8026 42.4153 16.4839C42.8478 16.0515 42.9844 15.5962 42.8478 15.0045C42.7795 14.7768 42.6885 14.5948 42.734 14.3672C42.6657 14.2533 42.7112 14.0713 42.8933 14.094C43.5989 14.1395 44.3045 14.2761 44.9873 14.003C45.6474 13.7526 46.1026 13.2746 46.3985 12.6373C46.4213 12.5918 46.4895 12.5918 46.5351 12.6146C46.5806 12.6146 46.6033 12.6601 46.6261 12.7056C46.6716 12.7056 46.7399 12.7511 46.7171 12.8194C46.5351 13.7526 46.4668 14.7086 46.6716 15.6418C46.8537 16.5067 47.3089 17.1895 47.6959 17.9634C47.7186 17.9861 47.7186 18.0089 47.7186 18.0317C47.7869 18.0772 47.8097 18.1682 47.7186 18.191C46.9903 18.5324 46.2847 18.8738 45.7384 19.4884C45.0101 20.3077 44.9873 21.1727 45.1011 22.2197C45.1011 22.3107 45.0556 22.3562 44.9873 22.379C44.9646 22.4245 44.919 22.4473 44.8507 22.4245C43.2802 21.9693 42.0967 22.3562 41.3228 23.426C42.347 23.9495 43.3258 24.9055 43.6444 26.0435C43.7355 26.4077 43.7582 26.7491 43.7127 27.1133C45.1011 28.0237 45.8067 29.4804 45.7839 30.9826C45.8067 30.9826 45.8295 31.0054 45.8522 31.0281C47.1724 32.3027 47.7869 33.9643 47.7186 35.6031C47.8097 35.6258 47.8097 35.6486 47.8097 35.6714ZM46.5578 42.7045C46.8537 41.0202 47.2179 39.2903 47.3772 37.5833C47.1496 38.1751 46.8309 38.7213 46.444 39.2448C45.7839 40.1097 44.9873 40.747 44.0996 41.2478C44.1452 41.2705 44.1679 41.3161 44.1679 41.3844C44.1679 43.8881 43.872 46.3007 43.3258 48.7589C42.7567 51.2626 42.256 53.8118 41.4821 56.27C41.9829 56.1334 42.4836 55.9513 42.9388 55.7465C45.1011 54.7222 45.0101 51.5812 45.3742 49.5328C45.7612 47.2567 46.1709 44.9806 46.5578 42.7045ZM47.3772 18.0089C46.5578 17.1667 46.1709 15.9149 46.2164 14.663C45.1466 17.5764 42.5291 20.4216 39.6613 21.0816C39.6385 21.0816 39.6157 21.0816 39.593 21.0816C39.593 21.8555 39.3881 22.5383 39.024 23.0846C39.3198 23.1756 39.6157 23.4032 39.8433 23.5853C40.071 23.7674 40.2986 23.9723 40.4807 24.2226C40.7765 22.3562 43.0299 21.2409 44.7369 21.9693C44.1224 20.3988 45.7157 18.2593 47.3772 18.0089ZM45.4653 39.7228C47.8097 37.4467 48.1056 33.8277 45.8295 31.4378C45.7612 32.0524 45.5791 32.6442 45.2604 33.2132C42.4153 38.3572 35.4277 39.8139 30.0334 39.2676C27.5752 39.0172 25.0715 37.9019 23.9562 35.5803C23.6603 34.9658 23.501 34.3285 23.4782 33.6912C22.0898 36.6728 22.6816 40.2008 26.0502 41.5664C29.1912 42.8411 32.5599 43.0687 35.8829 42.7272C39.1605 42.4086 42.9616 42.181 45.4653 39.7228ZM45.5336 30.9371C45.5563 29.5487 44.8052 28.2513 43.7127 27.4319C43.5534 28.1147 43.1892 28.7748 42.7795 29.3211C40.8448 31.8931 37.3169 32.849 34.3124 33.3953C32.6737 33.6912 31.0804 33.6684 29.4416 33.3042C28.167 33.0311 26.6193 32.6442 25.7543 31.6199C25.4584 31.2557 25.2764 30.8461 25.2081 30.4136C22.5451 32.6669 24.0928 36.5818 26.8696 38.0157C29.5554 39.4042 33.1061 39.131 35.9968 38.6075C38.8646 38.1068 41.687 36.946 43.6899 34.7837C44.6459 33.7139 45.5336 32.3938 45.5336 30.9371ZM43.9176 17.7585C44.919 16.5977 45.5563 15.3003 46.0343 13.8892C45.306 14.5492 44.0769 14.7313 43.0982 14.5037C43.2802 14.7768 43.3485 15.1865 43.3485 15.4597C43.3485 15.9604 43.0526 16.4384 42.734 16.7798C42.1877 17.3488 41.0952 17.8268 40.2758 17.5537C40.3896 17.9406 40.3668 18.3503 40.253 18.7372C40.1165 19.1242 39.8206 19.7387 39.3881 19.8525H39.3654C39.4792 20.1939 39.5702 20.5809 39.593 20.9451C41.1862 19.9891 42.6885 19.1925 43.9176 17.7585ZM42.8705 49.0775C43.4396 46.5283 43.7582 44.0246 43.8037 41.4299C42.1422 42.272 40.2075 42.6362 38.3184 42.8638C38.2728 47.507 38.4549 52.173 38.2956 56.839C39.2743 56.748 40.2986 56.6114 41.2318 56.361C41.2318 56.3383 41.2318 56.3383 41.2318 56.3155C41.6415 53.8573 42.3243 51.4674 42.8705 49.0775ZM43.4396 26.7491C43.4396 25.429 42.3015 24.2681 41.1862 23.6991C41.0269 23.9495 40.8903 24.2454 40.7765 24.564C40.7538 24.6323 40.6627 24.6778 40.5945 24.6778H40.5717C40.3668 24.6778 40.2075 24.4958 40.0482 24.3364C39.6385 25.8614 37.7721 26.8857 36.452 27.4774C34.8587 28.183 33.0606 28.5244 31.308 28.4789C30.0562 28.4562 28.0532 28.1147 27.598 26.7036C27.5752 26.6353 27.5525 26.5442 27.5525 26.476C26.6193 27.1815 25.9364 28.1375 25.6861 29.2983C25.3219 30.9599 26.3917 31.9613 27.8711 32.4848C30.3065 33.3498 32.7647 33.418 35.2912 32.8263C37.59 32.28 40.0254 31.6199 41.8008 29.9356C42.5747 29.0935 43.4396 27.9554 43.4396 26.7491ZM39.7978 24.0861C39.6157 23.9495 39.4337 23.8129 39.2516 23.6764C39.115 23.5853 38.9557 23.5398 38.8191 23.426C38.1363 24.2909 37.0438 24.7916 35.7691 24.7916C34.358 24.7916 33.1972 24.1088 32.6054 23.0163C31.9225 22.9025 31.2852 23.0163 30.6707 23.335C30.5569 23.4032 30.4659 23.2894 30.4886 23.1984C30.3748 23.0618 30.2838 22.948 30.17 22.8342C29.6692 23.9267 28.3946 24.4047 28.0077 25.52C27.1655 27.9327 30.6479 28.1147 32.1502 28.0237C33.6524 27.9327 35.1774 27.5912 36.5658 26.9539C37.7949 26.4077 39.4337 25.4745 39.7978 24.0861ZM35.7691 24.382C37.7038 24.4047 39.206 23.1073 39.206 21.1271C39.206 19.3973 38.068 18.1455 36.452 17.8723C36.4292 17.8723 36.4292 17.8723 36.4065 17.8723C34.4718 17.9634 32.7419 18.8738 32.6054 21.0589C32.4916 22.9935 33.8572 24.3592 35.7691 24.382ZM38.068 56.839C38.0452 56.839 38.068 56.839 38.068 56.839C37.8631 52.1958 38.0225 47.5298 37.9542 42.8866C37.4079 42.9549 36.8617 43.0004 36.3154 43.0687C35.7464 43.1369 35.1774 43.1825 34.5856 43.2052C34.6539 45.5041 34.7449 47.8029 34.8132 50.1018C34.8815 52.4006 35.0863 54.7222 34.9953 56.9983C35.496 56.9983 36.0195 56.9756 36.5203 56.9528C36.9982 56.9301 37.5217 56.8845 38.068 56.839ZM34.7904 56.9983C34.5173 54.7222 34.5401 52.3779 34.4718 50.079C34.3807 47.7802 34.3124 45.5041 34.2214 43.2052C32.833 43.2735 31.4446 43.228 30.0789 43.0231H30.0562C30.3065 45.4586 30.6252 47.894 30.9666 50.3294C31.2625 52.4689 31.6949 54.6084 31.8998 56.748C32.8557 56.9301 33.8345 56.9983 34.7904 56.9983ZM32.4233 19.8753C32.0364 19.8753 31.7177 19.5339 31.5584 19.1925C31.3763 18.851 31.2852 18.4414 31.308 18.0544C30.7162 18.5552 29.692 18.4641 29.1002 18.0089C28.5767 17.5992 28.1442 16.6205 28.3946 15.9604C27.2793 16.2335 25.9364 15.8921 25.026 15.2093C26.0047 18.1455 29.2595 20.285 32.2412 20.5126C32.2867 20.3077 32.355 20.0801 32.4233 19.8753ZM30.739 22.9935C31.2397 22.6976 31.8315 22.5838 32.4005 22.6521C32.2184 22.1741 32.1274 21.6506 32.1502 21.0589C32.1502 20.9451 32.1729 20.854 32.1729 20.7402C30.6024 20.8995 29.0547 20.1939 27.8256 19.2607C26.8924 18.5324 25.8454 17.5764 25.1853 16.4839C25.2991 17.5537 25.1398 18.6462 24.7073 19.5794C26.0047 19.7615 27.0972 20.9678 27.0745 22.2652C28.258 21.6506 30.2382 21.5596 30.739 22.9935ZM31.7177 56.748C31.1259 54.4946 30.8528 52.1047 30.5341 49.8059C30.2155 47.5298 29.9651 45.2537 29.7147 42.9776C28.5767 42.7728 27.3248 42.4996 26.2096 42.0444C26.7558 46.9153 28.0987 51.513 29.5099 56.1789V56.2017C29.6465 56.2472 29.783 56.2928 29.9196 56.3383C30.4886 56.4976 31.1032 56.6342 31.7177 56.748ZM26.9151 54.1077C27.3476 55.223 28.258 55.7692 29.2823 56.1334C27.3248 51.6723 26.3916 46.7104 25.8454 41.9079C25.4129 41.703 25.0032 41.4754 24.6163 41.225C24.1156 40.8836 23.7059 40.4512 23.3872 39.9959C23.7514 41.4982 24.0473 43.0004 24.4114 44.5026C24.9349 46.7104 25.504 48.9182 26.0958 51.126C26.3461 52.1047 26.551 53.1517 26.9151 54.1077Z" fill="#252A34"/>
<path d="M46.8762 34.739C46.899 34.8528 46.7396 34.921 46.6941 34.8072C46.6486 34.7162 46.5803 34.6024 46.4893 34.5341C46.4437 34.5113 46.3072 34.4886 46.3072 34.5796C46.3072 34.6934 46.1251 34.6934 46.1023 34.5796C46.0796 34.3975 46.2844 34.261 46.4665 34.2837C46.6941 34.3293 46.8079 34.5341 46.8762 34.739Z" fill="#252A34"/>
<path d="M46.4443 33.6464C46.5126 33.7147 46.4216 33.8513 46.3305 33.8057C46.1484 33.6919 45.9208 33.5098 45.7387 33.7147C45.6705 33.783 45.5339 33.7147 45.5794 33.6236C45.6477 33.4643 45.7843 33.3733 45.9664 33.396C46.1484 33.3733 46.3305 33.4871 46.4443 33.6464Z" fill="#252A34"/>
<path d="M45.6242 33.9875C45.7152 33.9647 45.7607 34.0785 45.7152 34.124C45.4648 34.3972 45.0552 34.0785 45.169 33.7371C45.2145 33.6005 45.4421 33.6461 45.3966 33.8054C45.3283 33.9647 45.4876 34.033 45.6242 33.9875Z" fill="#252A34"/>
<path d="M42.0286 40.769C42.1651 40.7235 42.2334 40.9283 42.1196 40.9966C41.9148 41.1332 41.6189 41.0194 41.5506 40.7918C41.4823 40.5414 41.6644 40.3138 41.9148 40.291C42.0286 40.291 42.0741 40.4959 41.9375 40.5186C41.8465 40.5414 41.7554 40.6324 41.801 40.7235C41.8465 40.769 41.9603 40.7918 42.0286 40.769Z" fill="#252A34"/>
<path d="M41.1637 41.0659C41.1865 41.2707 41.0271 41.43 40.8451 41.4528C40.663 41.4755 40.4809 41.3162 40.4354 41.1341C40.4126 40.9976 40.6174 40.9293 40.6402 41.0659C40.663 41.1569 40.7313 41.2252 40.8223 41.2024C40.9133 41.1797 40.9589 41.1114 40.9589 41.0203C41.0044 40.9293 41.1637 40.9748 41.1637 41.0659Z" fill="#252A34"/>
<path d="M41.0955 40.5868C41.1182 40.7006 40.9589 40.7461 40.9134 40.6323C40.8223 40.3819 40.4809 40.4047 40.4582 40.6778C40.4582 40.7688 40.2988 40.7916 40.2988 40.6778C40.2988 40.4729 40.4354 40.2909 40.6402 40.2681C40.8451 40.2453 41.0499 40.3819 41.0955 40.5868Z" fill="#252A34"/>
<path d="M36.9981 18.4641C37.0892 18.5096 37.0664 18.6462 36.9754 18.6689C36.8616 18.6917 36.7478 18.6917 36.634 18.7145C36.6795 18.7827 36.725 18.851 36.725 18.9421C36.7478 19.0559 36.5884 19.1469 36.4974 19.0331C36.4519 18.9648 36.4064 18.8965 36.3608 18.8283C36.2925 18.8738 36.2243 18.9421 36.1787 19.0104C36.1105 19.1014 35.9739 18.9876 36.0194 18.8965C36.0649 18.8283 36.1105 18.7372 36.1787 18.6689C36.1105 18.6234 36.0194 18.5779 35.9056 18.5551C35.8146 18.5324 35.8373 18.373 35.9284 18.373C36.0877 18.373 36.247 18.4186 36.3836 18.5096C36.5884 18.4186 36.7933 18.373 36.9981 18.4641Z" fill="#252A34"/>
<path d="M29.0088 39.6327C29.464 39.4051 29.9648 39.883 29.7599 40.361C29.7144 40.4748 29.5551 40.3838 29.5778 40.2927C29.6689 39.9741 29.3957 39.701 29.0771 39.8148C28.9861 39.8375 28.9178 39.6782 29.0088 39.6327Z" fill="#252A34"/>
<path d="M28.9179 39.9737C29.0317 39.9054 29.1228 40.042 29.0545 40.133C28.9179 40.2924 28.6903 40.3151 28.531 40.1786C28.3717 40.042 28.3489 39.8144 28.44 39.6551C28.5083 39.5413 28.6903 39.6323 28.6221 39.7689C28.531 39.9737 28.7814 40.0875 28.9179 39.9737Z" fill="#252A34"/>
<path d="M24.3432 36.9457C24.457 36.9685 24.4342 37.1506 24.3204 37.1506C23.9107 37.1506 23.6604 36.6726 23.888 36.3312C23.979 36.1946 24.1611 36.3084 24.0928 36.445C24.0018 36.6498 24.1611 36.9002 24.3432 36.9457Z" fill="#252A34"/>
<path d="M23.8424 38.016C23.979 38.0388 23.979 38.2436 23.8424 38.2436C23.6603 38.2436 23.4555 38.2209 23.3189 38.1298C23.2051 38.0388 23.1596 37.8795 23.2961 37.7884C23.3872 37.7201 23.4782 37.8339 23.4555 37.925L23.4782 37.9477C23.501 37.9705 23.5465 37.9705 23.592 37.9933C23.6603 37.9933 23.7514 37.9933 23.8424 38.016Z" fill="#252A34"/>
<path d="M23.6608 35.6492C23.7518 35.5809 23.8656 35.7175 23.7973 35.8085C23.7063 35.9678 23.5242 36.0134 23.3649 35.9451C23.2055 35.8768 23.1373 35.6947 23.1828 35.5354C23.2056 35.3988 23.4104 35.4671 23.3876 35.6037C23.3876 35.6719 23.4104 35.7402 23.4787 35.763C23.547 35.7857 23.6152 35.6947 23.6608 35.6492Z" fill="#252A34"/>
<path d="M23.4328 36.2412C23.6604 36.3323 23.6831 36.6509 23.6604 36.8558C23.6376 36.9696 23.4783 36.924 23.4783 36.833C23.4555 36.7192 23.4783 36.5371 23.3872 36.4233C23.3417 36.355 23.1824 36.3323 23.1596 36.4461C23.1369 36.5371 23.0003 36.4916 23.0231 36.4005C23.0458 36.2412 23.2962 36.1729 23.4328 36.2412Z" fill="#252A34"/>
</svg>
